G04 #@! TF.GenerationSoftware,KiCad,Pcbnew,9.0.1-9.0.1-0~ubuntu22.04.1*
G04 #@! TF.CreationDate,2025-06-25T02:31:38+02:00*
G04 #@! TF.ProjectId,powermeter2.1,706f7765-726d-4657-9465-72322e312e6b,rev?*
G04 #@! TF.SameCoordinates,Original*
G04 #@! TF.FileFunction,Legend,Top*
G04 #@! TF.FilePolarity,Positive*
%FSLAX46Y46*%
G04 Gerber Fmt 4.6, Leading zero omitted, Abs format (unit mm)*
G04 Created by KiCad (PCBNEW 9.0.1-9.0.1-0~ubuntu22.04.1) date 2025-06-25 02:31:38*
%MOMM*%
%LPD*%
G01*
G04 APERTURE LIST*
G04 Aperture macros list*
%AMRoundRect*
0 Rectangle with rounded corners*
0 $1 Rounding radius*
0 $2 $3 $4 $5 $6 $7 $8 $9 X,Y pos of 4 corners*
0 Add a 4 corners polygon primitive as box body*
4,1,4,$2,$3,$4,$5,$6,$7,$8,$9,$2,$3,0*
0 Add four circle primitives for the rounded corners*
1,1,$1+$1,$2,$3*
1,1,$1+$1,$4,$5*
1,1,$1+$1,$6,$7*
1,1,$1+$1,$8,$9*
0 Add four rect primitives between the rounded corners*
20,1,$1+$1,$2,$3,$4,$5,0*
20,1,$1+$1,$4,$5,$6,$7,0*
20,1,$1+$1,$6,$7,$8,$9,0*
20,1,$1+$1,$8,$9,$2,$3,0*%
G04 Aperture macros list end*
%ADD10C,0.150000*%
%ADD11C,0.120000*%
%ADD12C,0.100000*%
%ADD13RoundRect,0.200000X0.275000X-0.200000X0.275000X0.200000X-0.275000X0.200000X-0.275000X-0.200000X0*%
%ADD14R,1.000000X1.000000*%
%ADD15C,1.000000*%
%ADD16RoundRect,0.200000X-0.200000X-0.275000X0.200000X-0.275000X0.200000X0.275000X-0.200000X0.275000X0*%
%ADD17RoundRect,0.225000X-0.225000X-0.250000X0.225000X-0.250000X0.225000X0.250000X-0.225000X0.250000X0*%
%ADD18RoundRect,0.150000X0.150000X-0.512500X0.150000X0.512500X-0.150000X0.512500X-0.150000X-0.512500X0*%
%ADD19RoundRect,0.225000X-0.250000X0.225000X-0.250000X-0.225000X0.250000X-0.225000X0.250000X0.225000X0*%
%ADD20RoundRect,0.237500X-0.237500X0.287500X-0.237500X-0.287500X0.237500X-0.287500X0.237500X0.287500X0*%
%ADD21RoundRect,0.150000X0.150000X-0.850000X0.150000X0.850000X-0.150000X0.850000X-0.150000X-0.850000X0*%
%ADD22C,3.200000*%
%ADD23RoundRect,0.200000X-0.275000X0.200000X-0.275000X-0.200000X0.275000X-0.200000X0.275000X0.200000X0*%
%ADD24R,1.700000X1.700000*%
%ADD25C,1.700000*%
%ADD26R,0.250000X0.675000*%
%ADD27R,0.675000X0.250000*%
%ADD28C,1.400000*%
%ADD29O,1.400000X1.400000*%
%ADD30C,5.600000*%
%ADD31RoundRect,0.225000X0.225000X0.250000X-0.225000X0.250000X-0.225000X-0.250000X0.225000X-0.250000X0*%
%ADD32RoundRect,0.218750X0.256250X-0.218750X0.256250X0.218750X-0.256250X0.218750X-0.256250X-0.218750X0*%
%ADD33RoundRect,0.218750X-0.218750X-0.256250X0.218750X-0.256250X0.218750X0.256250X-0.218750X0.256250X0*%
%ADD34R,2.000000X2.500000*%
%ADD35RoundRect,0.237500X0.237500X-0.287500X0.237500X0.287500X-0.237500X0.287500X-0.237500X-0.287500X0*%
%ADD36R,0.900000X1.500000*%
%ADD37R,1.500000X0.900000*%
%ADD38C,0.600000*%
%ADD39R,3.900000X3.900000*%
%ADD40RoundRect,0.150000X-0.150000X0.587500X-0.150000X-0.587500X0.150000X-0.587500X0.150000X0.587500X0*%
%ADD41RoundRect,0.225000X0.250000X-0.225000X0.250000X0.225000X-0.250000X0.225000X-0.250000X-0.225000X0*%
G04 APERTURE END LIST*
D10*
X159339819Y-116316666D02*
X158863628Y-116649999D01*
X159339819Y-116888094D02*
X158339819Y-116888094D01*
X158339819Y-116888094D02*
X158339819Y-116507142D01*
X158339819Y-116507142D02*
X158387438Y-116411904D01*
X158387438Y-116411904D02*
X158435057Y-116364285D01*
X158435057Y-116364285D02*
X158530295Y-116316666D01*
X158530295Y-116316666D02*
X158673152Y-116316666D01*
X158673152Y-116316666D02*
X158768390Y-116364285D01*
X158768390Y-116364285D02*
X158816009Y-116411904D01*
X158816009Y-116411904D02*
X158863628Y-116507142D01*
X158863628Y-116507142D02*
X158863628Y-116888094D01*
X158339819Y-115983332D02*
X158339819Y-115364285D01*
X158339819Y-115364285D02*
X158720771Y-115697618D01*
X158720771Y-115697618D02*
X158720771Y-115554761D01*
X158720771Y-115554761D02*
X158768390Y-115459523D01*
X158768390Y-115459523D02*
X158816009Y-115411904D01*
X158816009Y-115411904D02*
X158911247Y-115364285D01*
X158911247Y-115364285D02*
X159149342Y-115364285D01*
X159149342Y-115364285D02*
X159244580Y-115411904D01*
X159244580Y-115411904D02*
X159292200Y-115459523D01*
X159292200Y-115459523D02*
X159339819Y-115554761D01*
X159339819Y-115554761D02*
X159339819Y-115840475D01*
X159339819Y-115840475D02*
X159292200Y-115935713D01*
X159292200Y-115935713D02*
X159244580Y-115983332D01*
X169181666Y-111419819D02*
X169181666Y-112134104D01*
X169181666Y-112134104D02*
X169134047Y-112276961D01*
X169134047Y-112276961D02*
X169038809Y-112372200D01*
X169038809Y-112372200D02*
X168895952Y-112419819D01*
X168895952Y-112419819D02*
X168800714Y-112419819D01*
X170086428Y-111753152D02*
X170086428Y-112419819D01*
X169848333Y-111372200D02*
X169610238Y-112086485D01*
X169610238Y-112086485D02*
X170229285Y-112086485D01*
X162408333Y-110349819D02*
X162075000Y-109873628D01*
X161836905Y-110349819D02*
X161836905Y-109349819D01*
X161836905Y-109349819D02*
X162217857Y-109349819D01*
X162217857Y-109349819D02*
X162313095Y-109397438D01*
X162313095Y-109397438D02*
X162360714Y-109445057D01*
X162360714Y-109445057D02*
X162408333Y-109540295D01*
X162408333Y-109540295D02*
X162408333Y-109683152D01*
X162408333Y-109683152D02*
X162360714Y-109778390D01*
X162360714Y-109778390D02*
X162313095Y-109826009D01*
X162313095Y-109826009D02*
X162217857Y-109873628D01*
X162217857Y-109873628D02*
X161836905Y-109873628D01*
X163265476Y-109349819D02*
X163075000Y-109349819D01*
X163075000Y-109349819D02*
X162979762Y-109397438D01*
X162979762Y-109397438D02*
X162932143Y-109445057D01*
X162932143Y-109445057D02*
X162836905Y-109587914D01*
X162836905Y-109587914D02*
X162789286Y-109778390D01*
X162789286Y-109778390D02*
X162789286Y-110159342D01*
X162789286Y-110159342D02*
X162836905Y-110254580D01*
X162836905Y-110254580D02*
X162884524Y-110302200D01*
X162884524Y-110302200D02*
X162979762Y-110349819D01*
X162979762Y-110349819D02*
X163170238Y-110349819D01*
X163170238Y-110349819D02*
X163265476Y-110302200D01*
X163265476Y-110302200D02*
X163313095Y-110254580D01*
X163313095Y-110254580D02*
X163360714Y-110159342D01*
X163360714Y-110159342D02*
X163360714Y-109921247D01*
X163360714Y-109921247D02*
X163313095Y-109826009D01*
X163313095Y-109826009D02*
X163265476Y-109778390D01*
X163265476Y-109778390D02*
X163170238Y-109730771D01*
X163170238Y-109730771D02*
X162979762Y-109730771D01*
X162979762Y-109730771D02*
X162884524Y-109778390D01*
X162884524Y-109778390D02*
X162836905Y-109826009D01*
X162836905Y-109826009D02*
X162789286Y-109921247D01*
X151899819Y-122091666D02*
X151423628Y-122424999D01*
X151899819Y-122663094D02*
X150899819Y-122663094D01*
X150899819Y-122663094D02*
X150899819Y-122282142D01*
X150899819Y-122282142D02*
X150947438Y-122186904D01*
X150947438Y-122186904D02*
X150995057Y-122139285D01*
X150995057Y-122139285D02*
X151090295Y-122091666D01*
X151090295Y-122091666D02*
X151233152Y-122091666D01*
X151233152Y-122091666D02*
X151328390Y-122139285D01*
X151328390Y-122139285D02*
X151376009Y-122186904D01*
X151376009Y-122186904D02*
X151423628Y-122282142D01*
X151423628Y-122282142D02*
X151423628Y-122663094D01*
X151328390Y-121520237D02*
X151280771Y-121615475D01*
X151280771Y-121615475D02*
X151233152Y-121663094D01*
X151233152Y-121663094D02*
X151137914Y-121710713D01*
X151137914Y-121710713D02*
X151090295Y-121710713D01*
X151090295Y-121710713D02*
X150995057Y-121663094D01*
X150995057Y-121663094D02*
X150947438Y-121615475D01*
X150947438Y-121615475D02*
X150899819Y-121520237D01*
X150899819Y-121520237D02*
X150899819Y-121329761D01*
X150899819Y-121329761D02*
X150947438Y-121234523D01*
X150947438Y-121234523D02*
X150995057Y-121186904D01*
X150995057Y-121186904D02*
X151090295Y-121139285D01*
X151090295Y-121139285D02*
X151137914Y-121139285D01*
X151137914Y-121139285D02*
X151233152Y-121186904D01*
X151233152Y-121186904D02*
X151280771Y-121234523D01*
X151280771Y-121234523D02*
X151328390Y-121329761D01*
X151328390Y-121329761D02*
X151328390Y-121520237D01*
X151328390Y-121520237D02*
X151376009Y-121615475D01*
X151376009Y-121615475D02*
X151423628Y-121663094D01*
X151423628Y-121663094D02*
X151518866Y-121710713D01*
X151518866Y-121710713D02*
X151709342Y-121710713D01*
X151709342Y-121710713D02*
X151804580Y-121663094D01*
X151804580Y-121663094D02*
X151852200Y-121615475D01*
X151852200Y-121615475D02*
X151899819Y-121520237D01*
X151899819Y-121520237D02*
X151899819Y-121329761D01*
X151899819Y-121329761D02*
X151852200Y-121234523D01*
X151852200Y-121234523D02*
X151804580Y-121186904D01*
X151804580Y-121186904D02*
X151709342Y-121139285D01*
X151709342Y-121139285D02*
X151518866Y-121139285D01*
X151518866Y-121139285D02*
X151423628Y-121186904D01*
X151423628Y-121186904D02*
X151376009Y-121234523D01*
X151376009Y-121234523D02*
X151328390Y-121329761D01*
X154483333Y-125229580D02*
X154435714Y-125277200D01*
X154435714Y-125277200D02*
X154292857Y-125324819D01*
X154292857Y-125324819D02*
X154197619Y-125324819D01*
X154197619Y-125324819D02*
X154054762Y-125277200D01*
X154054762Y-125277200D02*
X153959524Y-125181961D01*
X153959524Y-125181961D02*
X153911905Y-125086723D01*
X153911905Y-125086723D02*
X153864286Y-124896247D01*
X153864286Y-124896247D02*
X153864286Y-124753390D01*
X153864286Y-124753390D02*
X153911905Y-124562914D01*
X153911905Y-124562914D02*
X153959524Y-124467676D01*
X153959524Y-124467676D02*
X154054762Y-124372438D01*
X154054762Y-124372438D02*
X154197619Y-124324819D01*
X154197619Y-124324819D02*
X154292857Y-124324819D01*
X154292857Y-124324819D02*
X154435714Y-124372438D01*
X154435714Y-124372438D02*
X154483333Y-124420057D01*
X155054762Y-124753390D02*
X154959524Y-124705771D01*
X154959524Y-124705771D02*
X154911905Y-124658152D01*
X154911905Y-124658152D02*
X154864286Y-124562914D01*
X154864286Y-124562914D02*
X154864286Y-124515295D01*
X154864286Y-124515295D02*
X154911905Y-124420057D01*
X154911905Y-124420057D02*
X154959524Y-124372438D01*
X154959524Y-124372438D02*
X155054762Y-124324819D01*
X155054762Y-124324819D02*
X155245238Y-124324819D01*
X155245238Y-124324819D02*
X155340476Y-124372438D01*
X155340476Y-124372438D02*
X155388095Y-124420057D01*
X155388095Y-124420057D02*
X155435714Y-124515295D01*
X155435714Y-124515295D02*
X155435714Y-124562914D01*
X155435714Y-124562914D02*
X155388095Y-124658152D01*
X155388095Y-124658152D02*
X155340476Y-124705771D01*
X155340476Y-124705771D02*
X155245238Y-124753390D01*
X155245238Y-124753390D02*
X155054762Y-124753390D01*
X155054762Y-124753390D02*
X154959524Y-124801009D01*
X154959524Y-124801009D02*
X154911905Y-124848628D01*
X154911905Y-124848628D02*
X154864286Y-124943866D01*
X154864286Y-124943866D02*
X154864286Y-125134342D01*
X154864286Y-125134342D02*
X154911905Y-125229580D01*
X154911905Y-125229580D02*
X154959524Y-125277200D01*
X154959524Y-125277200D02*
X155054762Y-125324819D01*
X155054762Y-125324819D02*
X155245238Y-125324819D01*
X155245238Y-125324819D02*
X155340476Y-125277200D01*
X155340476Y-125277200D02*
X155388095Y-125229580D01*
X155388095Y-125229580D02*
X155435714Y-125134342D01*
X155435714Y-125134342D02*
X155435714Y-124943866D01*
X155435714Y-124943866D02*
X155388095Y-124848628D01*
X155388095Y-124848628D02*
X155340476Y-124801009D01*
X155340476Y-124801009D02*
X155245238Y-124753390D01*
X150324819Y-122091666D02*
X149848628Y-122424999D01*
X150324819Y-122663094D02*
X149324819Y-122663094D01*
X149324819Y-122663094D02*
X149324819Y-122282142D01*
X149324819Y-122282142D02*
X149372438Y-122186904D01*
X149372438Y-122186904D02*
X149420057Y-122139285D01*
X149420057Y-122139285D02*
X149515295Y-122091666D01*
X149515295Y-122091666D02*
X149658152Y-122091666D01*
X149658152Y-122091666D02*
X149753390Y-122139285D01*
X149753390Y-122139285D02*
X149801009Y-122186904D01*
X149801009Y-122186904D02*
X149848628Y-122282142D01*
X149848628Y-122282142D02*
X149848628Y-122663094D01*
X150324819Y-121615475D02*
X150324819Y-121424999D01*
X150324819Y-121424999D02*
X150277200Y-121329761D01*
X150277200Y-121329761D02*
X150229580Y-121282142D01*
X150229580Y-121282142D02*
X150086723Y-121186904D01*
X150086723Y-121186904D02*
X149896247Y-121139285D01*
X149896247Y-121139285D02*
X149515295Y-121139285D01*
X149515295Y-121139285D02*
X149420057Y-121186904D01*
X149420057Y-121186904D02*
X149372438Y-121234523D01*
X149372438Y-121234523D02*
X149324819Y-121329761D01*
X149324819Y-121329761D02*
X149324819Y-121520237D01*
X149324819Y-121520237D02*
X149372438Y-121615475D01*
X149372438Y-121615475D02*
X149420057Y-121663094D01*
X149420057Y-121663094D02*
X149515295Y-121710713D01*
X149515295Y-121710713D02*
X149753390Y-121710713D01*
X149753390Y-121710713D02*
X149848628Y-121663094D01*
X149848628Y-121663094D02*
X149896247Y-121615475D01*
X149896247Y-121615475D02*
X149943866Y-121520237D01*
X149943866Y-121520237D02*
X149943866Y-121329761D01*
X149943866Y-121329761D02*
X149896247Y-121234523D01*
X149896247Y-121234523D02*
X149848628Y-121186904D01*
X149848628Y-121186904D02*
X149753390Y-121139285D01*
X130209819Y-111020833D02*
X130924104Y-111020833D01*
X130924104Y-111020833D02*
X131066961Y-111068452D01*
X131066961Y-111068452D02*
X131162200Y-111163690D01*
X131162200Y-111163690D02*
X131209819Y-111306547D01*
X131209819Y-111306547D02*
X131209819Y-111401785D01*
X130209819Y-110639880D02*
X130209819Y-110020833D01*
X130209819Y-110020833D02*
X130590771Y-110354166D01*
X130590771Y-110354166D02*
X130590771Y-110211309D01*
X130590771Y-110211309D02*
X130638390Y-110116071D01*
X130638390Y-110116071D02*
X130686009Y-110068452D01*
X130686009Y-110068452D02*
X130781247Y-110020833D01*
X130781247Y-110020833D02*
X131019342Y-110020833D01*
X131019342Y-110020833D02*
X131114580Y-110068452D01*
X131114580Y-110068452D02*
X131162200Y-110116071D01*
X131162200Y-110116071D02*
X131209819Y-110211309D01*
X131209819Y-110211309D02*
X131209819Y-110497023D01*
X131209819Y-110497023D02*
X131162200Y-110592261D01*
X131162200Y-110592261D02*
X131114580Y-110639880D01*
X159929819Y-116324404D02*
X160739342Y-116324404D01*
X160739342Y-116324404D02*
X160834580Y-116276785D01*
X160834580Y-116276785D02*
X160882200Y-116229166D01*
X160882200Y-116229166D02*
X160929819Y-116133928D01*
X160929819Y-116133928D02*
X160929819Y-115943452D01*
X160929819Y-115943452D02*
X160882200Y-115848214D01*
X160882200Y-115848214D02*
X160834580Y-115800595D01*
X160834580Y-115800595D02*
X160739342Y-115752976D01*
X160739342Y-115752976D02*
X159929819Y-115752976D01*
X159929819Y-114848214D02*
X159929819Y-115038690D01*
X159929819Y-115038690D02*
X159977438Y-115133928D01*
X159977438Y-115133928D02*
X160025057Y-115181547D01*
X160025057Y-115181547D02*
X160167914Y-115276785D01*
X160167914Y-115276785D02*
X160358390Y-115324404D01*
X160358390Y-115324404D02*
X160739342Y-115324404D01*
X160739342Y-115324404D02*
X160834580Y-115276785D01*
X160834580Y-115276785D02*
X160882200Y-115229166D01*
X160882200Y-115229166D02*
X160929819Y-115133928D01*
X160929819Y-115133928D02*
X160929819Y-114943452D01*
X160929819Y-114943452D02*
X160882200Y-114848214D01*
X160882200Y-114848214D02*
X160834580Y-114800595D01*
X160834580Y-114800595D02*
X160739342Y-114752976D01*
X160739342Y-114752976D02*
X160501247Y-114752976D01*
X160501247Y-114752976D02*
X160406009Y-114800595D01*
X160406009Y-114800595D02*
X160358390Y-114848214D01*
X160358390Y-114848214D02*
X160310771Y-114943452D01*
X160310771Y-114943452D02*
X160310771Y-115133928D01*
X160310771Y-115133928D02*
X160358390Y-115229166D01*
X160358390Y-115229166D02*
X160406009Y-115276785D01*
X160406009Y-115276785D02*
X160501247Y-115324404D01*
X159354580Y-119491666D02*
X159402200Y-119539285D01*
X159402200Y-119539285D02*
X159449819Y-119682142D01*
X159449819Y-119682142D02*
X159449819Y-119777380D01*
X159449819Y-119777380D02*
X159402200Y-119920237D01*
X159402200Y-119920237D02*
X159306961Y-120015475D01*
X159306961Y-120015475D02*
X159211723Y-120063094D01*
X159211723Y-120063094D02*
X159021247Y-120110713D01*
X159021247Y-120110713D02*
X158878390Y-120110713D01*
X158878390Y-120110713D02*
X158687914Y-120063094D01*
X158687914Y-120063094D02*
X158592676Y-120015475D01*
X158592676Y-120015475D02*
X158497438Y-119920237D01*
X158497438Y-119920237D02*
X158449819Y-119777380D01*
X158449819Y-119777380D02*
X158449819Y-119682142D01*
X158449819Y-119682142D02*
X158497438Y-119539285D01*
X158497438Y-119539285D02*
X158545057Y-119491666D01*
X158449819Y-119158332D02*
X158449819Y-118539285D01*
X158449819Y-118539285D02*
X158830771Y-118872618D01*
X158830771Y-118872618D02*
X158830771Y-118729761D01*
X158830771Y-118729761D02*
X158878390Y-118634523D01*
X158878390Y-118634523D02*
X158926009Y-118586904D01*
X158926009Y-118586904D02*
X159021247Y-118539285D01*
X159021247Y-118539285D02*
X159259342Y-118539285D01*
X159259342Y-118539285D02*
X159354580Y-118586904D01*
X159354580Y-118586904D02*
X159402200Y-118634523D01*
X159402200Y-118634523D02*
X159449819Y-118729761D01*
X159449819Y-118729761D02*
X159449819Y-119015475D01*
X159449819Y-119015475D02*
X159402200Y-119110713D01*
X159402200Y-119110713D02*
X159354580Y-119158332D01*
X161179580Y-119441666D02*
X161227200Y-119489285D01*
X161227200Y-119489285D02*
X161274819Y-119632142D01*
X161274819Y-119632142D02*
X161274819Y-119727380D01*
X161274819Y-119727380D02*
X161227200Y-119870237D01*
X161227200Y-119870237D02*
X161131961Y-119965475D01*
X161131961Y-119965475D02*
X161036723Y-120013094D01*
X161036723Y-120013094D02*
X160846247Y-120060713D01*
X160846247Y-120060713D02*
X160703390Y-120060713D01*
X160703390Y-120060713D02*
X160512914Y-120013094D01*
X160512914Y-120013094D02*
X160417676Y-119965475D01*
X160417676Y-119965475D02*
X160322438Y-119870237D01*
X160322438Y-119870237D02*
X160274819Y-119727380D01*
X160274819Y-119727380D02*
X160274819Y-119632142D01*
X160274819Y-119632142D02*
X160322438Y-119489285D01*
X160322438Y-119489285D02*
X160370057Y-119441666D01*
X160608152Y-118584523D02*
X161274819Y-118584523D01*
X160227200Y-118822618D02*
X160941485Y-119060713D01*
X160941485Y-119060713D02*
X160941485Y-118441666D01*
X168809819Y-116263094D02*
X167809819Y-116263094D01*
X167809819Y-116263094D02*
X167809819Y-116024999D01*
X167809819Y-116024999D02*
X167857438Y-115882142D01*
X167857438Y-115882142D02*
X167952676Y-115786904D01*
X167952676Y-115786904D02*
X168047914Y-115739285D01*
X168047914Y-115739285D02*
X168238390Y-115691666D01*
X168238390Y-115691666D02*
X168381247Y-115691666D01*
X168381247Y-115691666D02*
X168571723Y-115739285D01*
X168571723Y-115739285D02*
X168666961Y-115786904D01*
X168666961Y-115786904D02*
X168762200Y-115882142D01*
X168762200Y-115882142D02*
X168809819Y-116024999D01*
X168809819Y-116024999D02*
X168809819Y-116263094D01*
X167905057Y-115310713D02*
X167857438Y-115263094D01*
X167857438Y-115263094D02*
X167809819Y-115167856D01*
X167809819Y-115167856D02*
X167809819Y-114929761D01*
X167809819Y-114929761D02*
X167857438Y-114834523D01*
X167857438Y-114834523D02*
X167905057Y-114786904D01*
X167905057Y-114786904D02*
X168000295Y-114739285D01*
X168000295Y-114739285D02*
X168095533Y-114739285D01*
X168095533Y-114739285D02*
X168238390Y-114786904D01*
X168238390Y-114786904D02*
X168809819Y-115358332D01*
X168809819Y-115358332D02*
X168809819Y-114739285D01*
X162658333Y-123354580D02*
X162610714Y-123402200D01*
X162610714Y-123402200D02*
X162467857Y-123449819D01*
X162467857Y-123449819D02*
X162372619Y-123449819D01*
X162372619Y-123449819D02*
X162229762Y-123402200D01*
X162229762Y-123402200D02*
X162134524Y-123306961D01*
X162134524Y-123306961D02*
X162086905Y-123211723D01*
X162086905Y-123211723D02*
X162039286Y-123021247D01*
X162039286Y-123021247D02*
X162039286Y-122878390D01*
X162039286Y-122878390D02*
X162086905Y-122687914D01*
X162086905Y-122687914D02*
X162134524Y-122592676D01*
X162134524Y-122592676D02*
X162229762Y-122497438D01*
X162229762Y-122497438D02*
X162372619Y-122449819D01*
X162372619Y-122449819D02*
X162467857Y-122449819D01*
X162467857Y-122449819D02*
X162610714Y-122497438D01*
X162610714Y-122497438D02*
X162658333Y-122545057D01*
X163515476Y-122449819D02*
X163325000Y-122449819D01*
X163325000Y-122449819D02*
X163229762Y-122497438D01*
X163229762Y-122497438D02*
X163182143Y-122545057D01*
X163182143Y-122545057D02*
X163086905Y-122687914D01*
X163086905Y-122687914D02*
X163039286Y-122878390D01*
X163039286Y-122878390D02*
X163039286Y-123259342D01*
X163039286Y-123259342D02*
X163086905Y-123354580D01*
X163086905Y-123354580D02*
X163134524Y-123402200D01*
X163134524Y-123402200D02*
X163229762Y-123449819D01*
X163229762Y-123449819D02*
X163420238Y-123449819D01*
X163420238Y-123449819D02*
X163515476Y-123402200D01*
X163515476Y-123402200D02*
X163563095Y-123354580D01*
X163563095Y-123354580D02*
X163610714Y-123259342D01*
X163610714Y-123259342D02*
X163610714Y-123021247D01*
X163610714Y-123021247D02*
X163563095Y-122926009D01*
X163563095Y-122926009D02*
X163515476Y-122878390D01*
X163515476Y-122878390D02*
X163420238Y-122830771D01*
X163420238Y-122830771D02*
X163229762Y-122830771D01*
X163229762Y-122830771D02*
X163134524Y-122878390D01*
X163134524Y-122878390D02*
X163086905Y-122926009D01*
X163086905Y-122926009D02*
X163039286Y-123021247D01*
X154933333Y-118429580D02*
X154885714Y-118477200D01*
X154885714Y-118477200D02*
X154742857Y-118524819D01*
X154742857Y-118524819D02*
X154647619Y-118524819D01*
X154647619Y-118524819D02*
X154504762Y-118477200D01*
X154504762Y-118477200D02*
X154409524Y-118381961D01*
X154409524Y-118381961D02*
X154361905Y-118286723D01*
X154361905Y-118286723D02*
X154314286Y-118096247D01*
X154314286Y-118096247D02*
X154314286Y-117953390D01*
X154314286Y-117953390D02*
X154361905Y-117762914D01*
X154361905Y-117762914D02*
X154409524Y-117667676D01*
X154409524Y-117667676D02*
X154504762Y-117572438D01*
X154504762Y-117572438D02*
X154647619Y-117524819D01*
X154647619Y-117524819D02*
X154742857Y-117524819D01*
X154742857Y-117524819D02*
X154885714Y-117572438D01*
X154885714Y-117572438D02*
X154933333Y-117620057D01*
X155314286Y-117620057D02*
X155361905Y-117572438D01*
X155361905Y-117572438D02*
X155457143Y-117524819D01*
X155457143Y-117524819D02*
X155695238Y-117524819D01*
X155695238Y-117524819D02*
X155790476Y-117572438D01*
X155790476Y-117572438D02*
X155838095Y-117620057D01*
X155838095Y-117620057D02*
X155885714Y-117715295D01*
X155885714Y-117715295D02*
X155885714Y-117810533D01*
X155885714Y-117810533D02*
X155838095Y-117953390D01*
X155838095Y-117953390D02*
X155266667Y-118524819D01*
X155266667Y-118524819D02*
X155885714Y-118524819D01*
X149329819Y-111486904D02*
X150139342Y-111486904D01*
X150139342Y-111486904D02*
X150234580Y-111439285D01*
X150234580Y-111439285D02*
X150282200Y-111391666D01*
X150282200Y-111391666D02*
X150329819Y-111296428D01*
X150329819Y-111296428D02*
X150329819Y-111105952D01*
X150329819Y-111105952D02*
X150282200Y-111010714D01*
X150282200Y-111010714D02*
X150234580Y-110963095D01*
X150234580Y-110963095D02*
X150139342Y-110915476D01*
X150139342Y-110915476D02*
X149329819Y-110915476D01*
X150329819Y-109915476D02*
X150329819Y-110486904D01*
X150329819Y-110201190D02*
X149329819Y-110201190D01*
X149329819Y-110201190D02*
X149472676Y-110296428D01*
X149472676Y-110296428D02*
X149567914Y-110391666D01*
X149567914Y-110391666D02*
X149615533Y-110486904D01*
X162182142Y-124954580D02*
X162134523Y-125002200D01*
X162134523Y-125002200D02*
X161991666Y-125049819D01*
X161991666Y-125049819D02*
X161896428Y-125049819D01*
X161896428Y-125049819D02*
X161753571Y-125002200D01*
X161753571Y-125002200D02*
X161658333Y-124906961D01*
X161658333Y-124906961D02*
X161610714Y-124811723D01*
X161610714Y-124811723D02*
X161563095Y-124621247D01*
X161563095Y-124621247D02*
X161563095Y-124478390D01*
X161563095Y-124478390D02*
X161610714Y-124287914D01*
X161610714Y-124287914D02*
X161658333Y-124192676D01*
X161658333Y-124192676D02*
X161753571Y-124097438D01*
X161753571Y-124097438D02*
X161896428Y-124049819D01*
X161896428Y-124049819D02*
X161991666Y-124049819D01*
X161991666Y-124049819D02*
X162134523Y-124097438D01*
X162134523Y-124097438D02*
X162182142Y-124145057D01*
X163134523Y-125049819D02*
X162563095Y-125049819D01*
X162848809Y-125049819D02*
X162848809Y-124049819D01*
X162848809Y-124049819D02*
X162753571Y-124192676D01*
X162753571Y-124192676D02*
X162658333Y-124287914D01*
X162658333Y-124287914D02*
X162563095Y-124335533D01*
X164086904Y-125049819D02*
X163515476Y-125049819D01*
X163801190Y-125049819D02*
X163801190Y-124049819D01*
X163801190Y-124049819D02*
X163705952Y-124192676D01*
X163705952Y-124192676D02*
X163610714Y-124287914D01*
X163610714Y-124287914D02*
X163515476Y-124335533D01*
X120013095Y-120779819D02*
X120013095Y-119779819D01*
X120013095Y-120256009D02*
X120584523Y-120256009D01*
X120584523Y-120779819D02*
X120584523Y-119779819D01*
X121489285Y-119779819D02*
X121298809Y-119779819D01*
X121298809Y-119779819D02*
X121203571Y-119827438D01*
X121203571Y-119827438D02*
X121155952Y-119875057D01*
X121155952Y-119875057D02*
X121060714Y-120017914D01*
X121060714Y-120017914D02*
X121013095Y-120208390D01*
X121013095Y-120208390D02*
X121013095Y-120589342D01*
X121013095Y-120589342D02*
X121060714Y-120684580D01*
X121060714Y-120684580D02*
X121108333Y-120732200D01*
X121108333Y-120732200D02*
X121203571Y-120779819D01*
X121203571Y-120779819D02*
X121394047Y-120779819D01*
X121394047Y-120779819D02*
X121489285Y-120732200D01*
X121489285Y-120732200D02*
X121536904Y-120684580D01*
X121536904Y-120684580D02*
X121584523Y-120589342D01*
X121584523Y-120589342D02*
X121584523Y-120351247D01*
X121584523Y-120351247D02*
X121536904Y-120256009D01*
X121536904Y-120256009D02*
X121489285Y-120208390D01*
X121489285Y-120208390D02*
X121394047Y-120160771D01*
X121394047Y-120160771D02*
X121203571Y-120160771D01*
X121203571Y-120160771D02*
X121108333Y-120208390D01*
X121108333Y-120208390D02*
X121060714Y-120256009D01*
X121060714Y-120256009D02*
X121013095Y-120351247D01*
X167234819Y-112391666D02*
X166758628Y-112724999D01*
X167234819Y-112963094D02*
X166234819Y-112963094D01*
X166234819Y-112963094D02*
X166234819Y-112582142D01*
X166234819Y-112582142D02*
X166282438Y-112486904D01*
X166282438Y-112486904D02*
X166330057Y-112439285D01*
X166330057Y-112439285D02*
X166425295Y-112391666D01*
X166425295Y-112391666D02*
X166568152Y-112391666D01*
X166568152Y-112391666D02*
X166663390Y-112439285D01*
X166663390Y-112439285D02*
X166711009Y-112486904D01*
X166711009Y-112486904D02*
X166758628Y-112582142D01*
X166758628Y-112582142D02*
X166758628Y-112963094D01*
X166234819Y-112058332D02*
X166234819Y-111391666D01*
X166234819Y-111391666D02*
X167234819Y-111820237D01*
X167309819Y-109083333D02*
X168024104Y-109083333D01*
X168024104Y-109083333D02*
X168166961Y-109130952D01*
X168166961Y-109130952D02*
X168262200Y-109226190D01*
X168262200Y-109226190D02*
X168309819Y-109369047D01*
X168309819Y-109369047D02*
X168309819Y-109464285D01*
X168309819Y-108083333D02*
X168309819Y-108654761D01*
X168309819Y-108369047D02*
X167309819Y-108369047D01*
X167309819Y-108369047D02*
X167452676Y-108464285D01*
X167452676Y-108464285D02*
X167547914Y-108559523D01*
X167547914Y-108559523D02*
X167595533Y-108654761D01*
X155872319Y-124119404D02*
X156681842Y-124119404D01*
X156681842Y-124119404D02*
X156777080Y-124071785D01*
X156777080Y-124071785D02*
X156824700Y-124024166D01*
X156824700Y-124024166D02*
X156872319Y-123928928D01*
X156872319Y-123928928D02*
X156872319Y-123738452D01*
X156872319Y-123738452D02*
X156824700Y-123643214D01*
X156824700Y-123643214D02*
X156777080Y-123595595D01*
X156777080Y-123595595D02*
X156681842Y-123547976D01*
X156681842Y-123547976D02*
X155872319Y-123547976D01*
X155967557Y-123119404D02*
X155919938Y-123071785D01*
X155919938Y-123071785D02*
X155872319Y-122976547D01*
X155872319Y-122976547D02*
X155872319Y-122738452D01*
X155872319Y-122738452D02*
X155919938Y-122643214D01*
X155919938Y-122643214D02*
X155967557Y-122595595D01*
X155967557Y-122595595D02*
X156062795Y-122547976D01*
X156062795Y-122547976D02*
X156158033Y-122547976D01*
X156158033Y-122547976D02*
X156300890Y-122595595D01*
X156300890Y-122595595D02*
X156872319Y-123167023D01*
X156872319Y-123167023D02*
X156872319Y-122547976D01*
X154161666Y-122059819D02*
X154161666Y-122774104D01*
X154161666Y-122774104D02*
X154114047Y-122916961D01*
X154114047Y-122916961D02*
X154018809Y-123012200D01*
X154018809Y-123012200D02*
X153875952Y-123059819D01*
X153875952Y-123059819D02*
X153780714Y-123059819D01*
X154590238Y-122155057D02*
X154637857Y-122107438D01*
X154637857Y-122107438D02*
X154733095Y-122059819D01*
X154733095Y-122059819D02*
X154971190Y-122059819D01*
X154971190Y-122059819D02*
X155066428Y-122107438D01*
X155066428Y-122107438D02*
X155114047Y-122155057D01*
X155114047Y-122155057D02*
X155161666Y-122250295D01*
X155161666Y-122250295D02*
X155161666Y-122345533D01*
X155161666Y-122345533D02*
X155114047Y-122488390D01*
X155114047Y-122488390D02*
X154542619Y-123059819D01*
X154542619Y-123059819D02*
X155161666Y-123059819D01*
X164379819Y-124761904D02*
X163379819Y-124761904D01*
X163856009Y-124761904D02*
X163856009Y-124190476D01*
X164379819Y-124190476D02*
X163379819Y-124190476D01*
X163379819Y-123809523D02*
X163379819Y-123190476D01*
X163379819Y-123190476D02*
X163760771Y-123523809D01*
X163760771Y-123523809D02*
X163760771Y-123380952D01*
X163760771Y-123380952D02*
X163808390Y-123285714D01*
X163808390Y-123285714D02*
X163856009Y-123238095D01*
X163856009Y-123238095D02*
X163951247Y-123190476D01*
X163951247Y-123190476D02*
X164189342Y-123190476D01*
X164189342Y-123190476D02*
X164284580Y-123238095D01*
X164284580Y-123238095D02*
X164332200Y-123285714D01*
X164332200Y-123285714D02*
X164379819Y-123380952D01*
X164379819Y-123380952D02*
X164379819Y-123666666D01*
X164379819Y-123666666D02*
X164332200Y-123761904D01*
X164332200Y-123761904D02*
X164284580Y-123809523D01*
X120013095Y-106279819D02*
X120013095Y-105279819D01*
X120013095Y-105756009D02*
X120584523Y-105756009D01*
X120584523Y-106279819D02*
X120584523Y-105279819D01*
X121489285Y-105279819D02*
X121298809Y-105279819D01*
X121298809Y-105279819D02*
X121203571Y-105327438D01*
X121203571Y-105327438D02*
X121155952Y-105375057D01*
X121155952Y-105375057D02*
X121060714Y-105517914D01*
X121060714Y-105517914D02*
X121013095Y-105708390D01*
X121013095Y-105708390D02*
X121013095Y-106089342D01*
X121013095Y-106089342D02*
X121060714Y-106184580D01*
X121060714Y-106184580D02*
X121108333Y-106232200D01*
X121108333Y-106232200D02*
X121203571Y-106279819D01*
X121203571Y-106279819D02*
X121394047Y-106279819D01*
X121394047Y-106279819D02*
X121489285Y-106232200D01*
X121489285Y-106232200D02*
X121536904Y-106184580D01*
X121536904Y-106184580D02*
X121584523Y-106089342D01*
X121584523Y-106089342D02*
X121584523Y-105851247D01*
X121584523Y-105851247D02*
X121536904Y-105756009D01*
X121536904Y-105756009D02*
X121489285Y-105708390D01*
X121489285Y-105708390D02*
X121394047Y-105660771D01*
X121394047Y-105660771D02*
X121203571Y-105660771D01*
X121203571Y-105660771D02*
X121108333Y-105708390D01*
X121108333Y-105708390D02*
X121060714Y-105756009D01*
X121060714Y-105756009D02*
X121013095Y-105851247D01*
X168708333Y-109589580D02*
X168660714Y-109637200D01*
X168660714Y-109637200D02*
X168517857Y-109684819D01*
X168517857Y-109684819D02*
X168422619Y-109684819D01*
X168422619Y-109684819D02*
X168279762Y-109637200D01*
X168279762Y-109637200D02*
X168184524Y-109541961D01*
X168184524Y-109541961D02*
X168136905Y-109446723D01*
X168136905Y-109446723D02*
X168089286Y-109256247D01*
X168089286Y-109256247D02*
X168089286Y-109113390D01*
X168089286Y-109113390D02*
X168136905Y-108922914D01*
X168136905Y-108922914D02*
X168184524Y-108827676D01*
X168184524Y-108827676D02*
X168279762Y-108732438D01*
X168279762Y-108732438D02*
X168422619Y-108684819D01*
X168422619Y-108684819D02*
X168517857Y-108684819D01*
X168517857Y-108684819D02*
X168660714Y-108732438D01*
X168660714Y-108732438D02*
X168708333Y-108780057D01*
X169184524Y-109684819D02*
X169375000Y-109684819D01*
X169375000Y-109684819D02*
X169470238Y-109637200D01*
X169470238Y-109637200D02*
X169517857Y-109589580D01*
X169517857Y-109589580D02*
X169613095Y-109446723D01*
X169613095Y-109446723D02*
X169660714Y-109256247D01*
X169660714Y-109256247D02*
X169660714Y-108875295D01*
X169660714Y-108875295D02*
X169613095Y-108780057D01*
X169613095Y-108780057D02*
X169565476Y-108732438D01*
X169565476Y-108732438D02*
X169470238Y-108684819D01*
X169470238Y-108684819D02*
X169279762Y-108684819D01*
X169279762Y-108684819D02*
X169184524Y-108732438D01*
X169184524Y-108732438D02*
X169136905Y-108780057D01*
X169136905Y-108780057D02*
X169089286Y-108875295D01*
X169089286Y-108875295D02*
X169089286Y-109113390D01*
X169089286Y-109113390D02*
X169136905Y-109208628D01*
X169136905Y-109208628D02*
X169184524Y-109256247D01*
X169184524Y-109256247D02*
X169279762Y-109303866D01*
X169279762Y-109303866D02*
X169470238Y-109303866D01*
X169470238Y-109303866D02*
X169565476Y-109256247D01*
X169565476Y-109256247D02*
X169613095Y-109208628D01*
X169613095Y-109208628D02*
X169660714Y-109113390D01*
X167259819Y-115967857D02*
X166783628Y-116301190D01*
X167259819Y-116539285D02*
X166259819Y-116539285D01*
X166259819Y-116539285D02*
X166259819Y-116158333D01*
X166259819Y-116158333D02*
X166307438Y-116063095D01*
X166307438Y-116063095D02*
X166355057Y-116015476D01*
X166355057Y-116015476D02*
X166450295Y-115967857D01*
X166450295Y-115967857D02*
X166593152Y-115967857D01*
X166593152Y-115967857D02*
X166688390Y-116015476D01*
X166688390Y-116015476D02*
X166736009Y-116063095D01*
X166736009Y-116063095D02*
X166783628Y-116158333D01*
X166783628Y-116158333D02*
X166783628Y-116539285D01*
X167259819Y-115015476D02*
X167259819Y-115586904D01*
X167259819Y-115301190D02*
X166259819Y-115301190D01*
X166259819Y-115301190D02*
X166402676Y-115396428D01*
X166402676Y-115396428D02*
X166497914Y-115491666D01*
X166497914Y-115491666D02*
X166545533Y-115586904D01*
X166259819Y-114110714D02*
X166259819Y-114586904D01*
X166259819Y-114586904D02*
X166736009Y-114634523D01*
X166736009Y-114634523D02*
X166688390Y-114586904D01*
X166688390Y-114586904D02*
X166640771Y-114491666D01*
X166640771Y-114491666D02*
X166640771Y-114253571D01*
X166640771Y-114253571D02*
X166688390Y-114158333D01*
X166688390Y-114158333D02*
X166736009Y-114110714D01*
X166736009Y-114110714D02*
X166831247Y-114063095D01*
X166831247Y-114063095D02*
X167069342Y-114063095D01*
X167069342Y-114063095D02*
X167164580Y-114110714D01*
X167164580Y-114110714D02*
X167212200Y-114158333D01*
X167212200Y-114158333D02*
X167259819Y-114253571D01*
X167259819Y-114253571D02*
X167259819Y-114491666D01*
X167259819Y-114491666D02*
X167212200Y-114586904D01*
X167212200Y-114586904D02*
X167164580Y-114634523D01*
X165924819Y-112963094D02*
X164924819Y-112963094D01*
X164924819Y-112963094D02*
X164924819Y-112724999D01*
X164924819Y-112724999D02*
X164972438Y-112582142D01*
X164972438Y-112582142D02*
X165067676Y-112486904D01*
X165067676Y-112486904D02*
X165162914Y-112439285D01*
X165162914Y-112439285D02*
X165353390Y-112391666D01*
X165353390Y-112391666D02*
X165496247Y-112391666D01*
X165496247Y-112391666D02*
X165686723Y-112439285D01*
X165686723Y-112439285D02*
X165781961Y-112486904D01*
X165781961Y-112486904D02*
X165877200Y-112582142D01*
X165877200Y-112582142D02*
X165924819Y-112724999D01*
X165924819Y-112724999D02*
X165924819Y-112963094D01*
X164924819Y-112058332D02*
X164924819Y-111439285D01*
X164924819Y-111439285D02*
X165305771Y-111772618D01*
X165305771Y-111772618D02*
X165305771Y-111629761D01*
X165305771Y-111629761D02*
X165353390Y-111534523D01*
X165353390Y-111534523D02*
X165401009Y-111486904D01*
X165401009Y-111486904D02*
X165496247Y-111439285D01*
X165496247Y-111439285D02*
X165734342Y-111439285D01*
X165734342Y-111439285D02*
X165829580Y-111486904D01*
X165829580Y-111486904D02*
X165877200Y-111534523D01*
X165877200Y-111534523D02*
X165924819Y-111629761D01*
X165924819Y-111629761D02*
X165924819Y-111915475D01*
X165924819Y-111915475D02*
X165877200Y-112010713D01*
X165877200Y-112010713D02*
X165829580Y-112058332D01*
X162808333Y-111699819D02*
X162332143Y-111699819D01*
X162332143Y-111699819D02*
X162332143Y-110699819D01*
X163665476Y-111699819D02*
X163094048Y-111699819D01*
X163379762Y-111699819D02*
X163379762Y-110699819D01*
X163379762Y-110699819D02*
X163284524Y-110842676D01*
X163284524Y-110842676D02*
X163189286Y-110937914D01*
X163189286Y-110937914D02*
X163094048Y-110985533D01*
X151848333Y-118404580D02*
X151800714Y-118452200D01*
X151800714Y-118452200D02*
X151657857Y-118499819D01*
X151657857Y-118499819D02*
X151562619Y-118499819D01*
X151562619Y-118499819D02*
X151419762Y-118452200D01*
X151419762Y-118452200D02*
X151324524Y-118356961D01*
X151324524Y-118356961D02*
X151276905Y-118261723D01*
X151276905Y-118261723D02*
X151229286Y-118071247D01*
X151229286Y-118071247D02*
X151229286Y-117928390D01*
X151229286Y-117928390D02*
X151276905Y-117737914D01*
X151276905Y-117737914D02*
X151324524Y-117642676D01*
X151324524Y-117642676D02*
X151419762Y-117547438D01*
X151419762Y-117547438D02*
X151562619Y-117499819D01*
X151562619Y-117499819D02*
X151657857Y-117499819D01*
X151657857Y-117499819D02*
X151800714Y-117547438D01*
X151800714Y-117547438D02*
X151848333Y-117595057D01*
X152800714Y-118499819D02*
X152229286Y-118499819D01*
X152515000Y-118499819D02*
X152515000Y-117499819D01*
X152515000Y-117499819D02*
X152419762Y-117642676D01*
X152419762Y-117642676D02*
X152324524Y-117737914D01*
X152324524Y-117737914D02*
X152229286Y-117785533D01*
X172682200Y-116458332D02*
X172729819Y-116315475D01*
X172729819Y-116315475D02*
X172729819Y-116077380D01*
X172729819Y-116077380D02*
X172682200Y-115982142D01*
X172682200Y-115982142D02*
X172634580Y-115934523D01*
X172634580Y-115934523D02*
X172539342Y-115886904D01*
X172539342Y-115886904D02*
X172444104Y-115886904D01*
X172444104Y-115886904D02*
X172348866Y-115934523D01*
X172348866Y-115934523D02*
X172301247Y-115982142D01*
X172301247Y-115982142D02*
X172253628Y-116077380D01*
X172253628Y-116077380D02*
X172206009Y-116267856D01*
X172206009Y-116267856D02*
X172158390Y-116363094D01*
X172158390Y-116363094D02*
X172110771Y-116410713D01*
X172110771Y-116410713D02*
X172015533Y-116458332D01*
X172015533Y-116458332D02*
X171920295Y-116458332D01*
X171920295Y-116458332D02*
X171825057Y-116410713D01*
X171825057Y-116410713D02*
X171777438Y-116363094D01*
X171777438Y-116363094D02*
X171729819Y-116267856D01*
X171729819Y-116267856D02*
X171729819Y-116029761D01*
X171729819Y-116029761D02*
X171777438Y-115886904D01*
X171729819Y-115553570D02*
X172729819Y-115315475D01*
X172729819Y-115315475D02*
X172015533Y-115124999D01*
X172015533Y-115124999D02*
X172729819Y-114934523D01*
X172729819Y-114934523D02*
X171729819Y-114696428D01*
X171825057Y-114363094D02*
X171777438Y-114315475D01*
X171777438Y-114315475D02*
X171729819Y-114220237D01*
X171729819Y-114220237D02*
X171729819Y-113982142D01*
X171729819Y-113982142D02*
X171777438Y-113886904D01*
X171777438Y-113886904D02*
X171825057Y-113839285D01*
X171825057Y-113839285D02*
X171920295Y-113791666D01*
X171920295Y-113791666D02*
X172015533Y-113791666D01*
X172015533Y-113791666D02*
X172158390Y-113839285D01*
X172158390Y-113839285D02*
X172729819Y-114410713D01*
X172729819Y-114410713D02*
X172729819Y-113791666D01*
X165999819Y-119638094D02*
X164999819Y-119638094D01*
X164999819Y-119638094D02*
X164999819Y-119399999D01*
X164999819Y-119399999D02*
X165047438Y-119257142D01*
X165047438Y-119257142D02*
X165142676Y-119161904D01*
X165142676Y-119161904D02*
X165237914Y-119114285D01*
X165237914Y-119114285D02*
X165428390Y-119066666D01*
X165428390Y-119066666D02*
X165571247Y-119066666D01*
X165571247Y-119066666D02*
X165761723Y-119114285D01*
X165761723Y-119114285D02*
X165856961Y-119161904D01*
X165856961Y-119161904D02*
X165952200Y-119257142D01*
X165952200Y-119257142D02*
X165999819Y-119399999D01*
X165999819Y-119399999D02*
X165999819Y-119638094D01*
X165999819Y-118114285D02*
X165999819Y-118685713D01*
X165999819Y-118399999D02*
X164999819Y-118399999D01*
X164999819Y-118399999D02*
X165142676Y-118495237D01*
X165142676Y-118495237D02*
X165237914Y-118590475D01*
X165237914Y-118590475D02*
X165285533Y-118685713D01*
X160054819Y-120574404D02*
X160864342Y-120574404D01*
X160864342Y-120574404D02*
X160959580Y-120526785D01*
X160959580Y-120526785D02*
X161007200Y-120479166D01*
X161007200Y-120479166D02*
X161054819Y-120383928D01*
X161054819Y-120383928D02*
X161054819Y-120193452D01*
X161054819Y-120193452D02*
X161007200Y-120098214D01*
X161007200Y-120098214D02*
X160959580Y-120050595D01*
X160959580Y-120050595D02*
X160864342Y-120002976D01*
X160864342Y-120002976D02*
X160054819Y-120002976D01*
X160054819Y-119050595D02*
X160054819Y-119526785D01*
X160054819Y-119526785D02*
X160531009Y-119574404D01*
X160531009Y-119574404D02*
X160483390Y-119526785D01*
X160483390Y-119526785D02*
X160435771Y-119431547D01*
X160435771Y-119431547D02*
X160435771Y-119193452D01*
X160435771Y-119193452D02*
X160483390Y-119098214D01*
X160483390Y-119098214D02*
X160531009Y-119050595D01*
X160531009Y-119050595D02*
X160626247Y-119002976D01*
X160626247Y-119002976D02*
X160864342Y-119002976D01*
X160864342Y-119002976D02*
X160959580Y-119050595D01*
X160959580Y-119050595D02*
X161007200Y-119098214D01*
X161007200Y-119098214D02*
X161054819Y-119193452D01*
X161054819Y-119193452D02*
X161054819Y-119431547D01*
X161054819Y-119431547D02*
X161007200Y-119526785D01*
X161007200Y-119526785D02*
X160959580Y-119574404D01*
X158808333Y-127864580D02*
X158760714Y-127912200D01*
X158760714Y-127912200D02*
X158617857Y-127959819D01*
X158617857Y-127959819D02*
X158522619Y-127959819D01*
X158522619Y-127959819D02*
X158379762Y-127912200D01*
X158379762Y-127912200D02*
X158284524Y-127816961D01*
X158284524Y-127816961D02*
X158236905Y-127721723D01*
X158236905Y-127721723D02*
X158189286Y-127531247D01*
X158189286Y-127531247D02*
X158189286Y-127388390D01*
X158189286Y-127388390D02*
X158236905Y-127197914D01*
X158236905Y-127197914D02*
X158284524Y-127102676D01*
X158284524Y-127102676D02*
X158379762Y-127007438D01*
X158379762Y-127007438D02*
X158522619Y-126959819D01*
X158522619Y-126959819D02*
X158617857Y-126959819D01*
X158617857Y-126959819D02*
X158760714Y-127007438D01*
X158760714Y-127007438D02*
X158808333Y-127055057D01*
X159141667Y-126959819D02*
X159808333Y-126959819D01*
X159808333Y-126959819D02*
X159379762Y-127959819D01*
X149046904Y-127707680D02*
X149046904Y-126898157D01*
X149046904Y-126898157D02*
X148999285Y-126802919D01*
X148999285Y-126802919D02*
X148951666Y-126755300D01*
X148951666Y-126755300D02*
X148856428Y-126707680D01*
X148856428Y-126707680D02*
X148665952Y-126707680D01*
X148665952Y-126707680D02*
X148570714Y-126755300D01*
X148570714Y-126755300D02*
X148523095Y-126802919D01*
X148523095Y-126802919D02*
X148475476Y-126898157D01*
X148475476Y-126898157D02*
X148475476Y-127707680D01*
X148094523Y-127707680D02*
X147475476Y-127707680D01*
X147475476Y-127707680D02*
X147808809Y-127326728D01*
X147808809Y-127326728D02*
X147665952Y-127326728D01*
X147665952Y-127326728D02*
X147570714Y-127279109D01*
X147570714Y-127279109D02*
X147523095Y-127231490D01*
X147523095Y-127231490D02*
X147475476Y-127136252D01*
X147475476Y-127136252D02*
X147475476Y-126898157D01*
X147475476Y-126898157D02*
X147523095Y-126802919D01*
X147523095Y-126802919D02*
X147570714Y-126755300D01*
X147570714Y-126755300D02*
X147665952Y-126707680D01*
X147665952Y-126707680D02*
X147951666Y-126707680D01*
X147951666Y-126707680D02*
X148046904Y-126755300D01*
X148046904Y-126755300D02*
X148094523Y-126802919D01*
X154899819Y-122542857D02*
X154423628Y-122876190D01*
X154899819Y-123114285D02*
X153899819Y-123114285D01*
X153899819Y-123114285D02*
X153899819Y-122733333D01*
X153899819Y-122733333D02*
X153947438Y-122638095D01*
X153947438Y-122638095D02*
X153995057Y-122590476D01*
X153995057Y-122590476D02*
X154090295Y-122542857D01*
X154090295Y-122542857D02*
X154233152Y-122542857D01*
X154233152Y-122542857D02*
X154328390Y-122590476D01*
X154328390Y-122590476D02*
X154376009Y-122638095D01*
X154376009Y-122638095D02*
X154423628Y-122733333D01*
X154423628Y-122733333D02*
X154423628Y-123114285D01*
X154899819Y-121590476D02*
X154899819Y-122161904D01*
X154899819Y-121876190D02*
X153899819Y-121876190D01*
X153899819Y-121876190D02*
X154042676Y-121971428D01*
X154042676Y-121971428D02*
X154137914Y-122066666D01*
X154137914Y-122066666D02*
X154185533Y-122161904D01*
X153899819Y-120971428D02*
X153899819Y-120876190D01*
X153899819Y-120876190D02*
X153947438Y-120780952D01*
X153947438Y-120780952D02*
X153995057Y-120733333D01*
X153995057Y-120733333D02*
X154090295Y-120685714D01*
X154090295Y-120685714D02*
X154280771Y-120638095D01*
X154280771Y-120638095D02*
X154518866Y-120638095D01*
X154518866Y-120638095D02*
X154709342Y-120685714D01*
X154709342Y-120685714D02*
X154804580Y-120733333D01*
X154804580Y-120733333D02*
X154852200Y-120780952D01*
X154852200Y-120780952D02*
X154899819Y-120876190D01*
X154899819Y-120876190D02*
X154899819Y-120971428D01*
X154899819Y-120971428D02*
X154852200Y-121066666D01*
X154852200Y-121066666D02*
X154804580Y-121114285D01*
X154804580Y-121114285D02*
X154709342Y-121161904D01*
X154709342Y-121161904D02*
X154518866Y-121209523D01*
X154518866Y-121209523D02*
X154280771Y-121209523D01*
X154280771Y-121209523D02*
X154090295Y-121161904D01*
X154090295Y-121161904D02*
X153995057Y-121114285D01*
X153995057Y-121114285D02*
X153947438Y-121066666D01*
X153947438Y-121066666D02*
X153899819Y-120971428D01*
X160299819Y-116316666D02*
X159823628Y-116649999D01*
X160299819Y-116888094D02*
X159299819Y-116888094D01*
X159299819Y-116888094D02*
X159299819Y-116507142D01*
X159299819Y-116507142D02*
X159347438Y-116411904D01*
X159347438Y-116411904D02*
X159395057Y-116364285D01*
X159395057Y-116364285D02*
X159490295Y-116316666D01*
X159490295Y-116316666D02*
X159633152Y-116316666D01*
X159633152Y-116316666D02*
X159728390Y-116364285D01*
X159728390Y-116364285D02*
X159776009Y-116411904D01*
X159776009Y-116411904D02*
X159823628Y-116507142D01*
X159823628Y-116507142D02*
X159823628Y-116888094D01*
X159633152Y-115459523D02*
X160299819Y-115459523D01*
X159252200Y-115697618D02*
X159966485Y-115935713D01*
X159966485Y-115935713D02*
X159966485Y-115316666D01*
X162658333Y-121799819D02*
X162325000Y-121323628D01*
X162086905Y-121799819D02*
X162086905Y-120799819D01*
X162086905Y-120799819D02*
X162467857Y-120799819D01*
X162467857Y-120799819D02*
X162563095Y-120847438D01*
X162563095Y-120847438D02*
X162610714Y-120895057D01*
X162610714Y-120895057D02*
X162658333Y-120990295D01*
X162658333Y-120990295D02*
X162658333Y-121133152D01*
X162658333Y-121133152D02*
X162610714Y-121228390D01*
X162610714Y-121228390D02*
X162563095Y-121276009D01*
X162563095Y-121276009D02*
X162467857Y-121323628D01*
X162467857Y-121323628D02*
X162086905Y-121323628D01*
X163563095Y-120799819D02*
X163086905Y-120799819D01*
X163086905Y-120799819D02*
X163039286Y-121276009D01*
X163039286Y-121276009D02*
X163086905Y-121228390D01*
X163086905Y-121228390D02*
X163182143Y-121180771D01*
X163182143Y-121180771D02*
X163420238Y-121180771D01*
X163420238Y-121180771D02*
X163515476Y-121228390D01*
X163515476Y-121228390D02*
X163563095Y-121276009D01*
X163563095Y-121276009D02*
X163610714Y-121371247D01*
X163610714Y-121371247D02*
X163610714Y-121609342D01*
X163610714Y-121609342D02*
X163563095Y-121704580D01*
X163563095Y-121704580D02*
X163515476Y-121752200D01*
X163515476Y-121752200D02*
X163420238Y-121799819D01*
X163420238Y-121799819D02*
X163182143Y-121799819D01*
X163182143Y-121799819D02*
X163086905Y-121752200D01*
X163086905Y-121752200D02*
X163039286Y-121704580D01*
X155240057Y-116682738D02*
X155192438Y-116777976D01*
X155192438Y-116777976D02*
X155097200Y-116873214D01*
X155097200Y-116873214D02*
X154954342Y-117016071D01*
X154954342Y-117016071D02*
X154906723Y-117111309D01*
X154906723Y-117111309D02*
X154906723Y-117206547D01*
X155144819Y-117158928D02*
X155097200Y-117254166D01*
X155097200Y-117254166D02*
X155001961Y-117349404D01*
X155001961Y-117349404D02*
X154811485Y-117397023D01*
X154811485Y-117397023D02*
X154478152Y-117397023D01*
X154478152Y-117397023D02*
X154287676Y-117349404D01*
X154287676Y-117349404D02*
X154192438Y-117254166D01*
X154192438Y-117254166D02*
X154144819Y-117158928D01*
X154144819Y-117158928D02*
X154144819Y-116968452D01*
X154144819Y-116968452D02*
X154192438Y-116873214D01*
X154192438Y-116873214D02*
X154287676Y-116777976D01*
X154287676Y-116777976D02*
X154478152Y-116730357D01*
X154478152Y-116730357D02*
X154811485Y-116730357D01*
X154811485Y-116730357D02*
X155001961Y-116777976D01*
X155001961Y-116777976D02*
X155097200Y-116873214D01*
X155097200Y-116873214D02*
X155144819Y-116968452D01*
X155144819Y-116968452D02*
X155144819Y-117158928D01*
X154240057Y-116349404D02*
X154192438Y-116301785D01*
X154192438Y-116301785D02*
X154144819Y-116206547D01*
X154144819Y-116206547D02*
X154144819Y-115968452D01*
X154144819Y-115968452D02*
X154192438Y-115873214D01*
X154192438Y-115873214D02*
X154240057Y-115825595D01*
X154240057Y-115825595D02*
X154335295Y-115777976D01*
X154335295Y-115777976D02*
X154430533Y-115777976D01*
X154430533Y-115777976D02*
X154573390Y-115825595D01*
X154573390Y-115825595D02*
X155144819Y-116397023D01*
X155144819Y-116397023D02*
X155144819Y-115777976D01*
X163968333Y-100492080D02*
X163920714Y-100539700D01*
X163920714Y-100539700D02*
X163777857Y-100587319D01*
X163777857Y-100587319D02*
X163682619Y-100587319D01*
X163682619Y-100587319D02*
X163539762Y-100539700D01*
X163539762Y-100539700D02*
X163444524Y-100444461D01*
X163444524Y-100444461D02*
X163396905Y-100349223D01*
X163396905Y-100349223D02*
X163349286Y-100158747D01*
X163349286Y-100158747D02*
X163349286Y-100015890D01*
X163349286Y-100015890D02*
X163396905Y-99825414D01*
X163396905Y-99825414D02*
X163444524Y-99730176D01*
X163444524Y-99730176D02*
X163539762Y-99634938D01*
X163539762Y-99634938D02*
X163682619Y-99587319D01*
X163682619Y-99587319D02*
X163777857Y-99587319D01*
X163777857Y-99587319D02*
X163920714Y-99634938D01*
X163920714Y-99634938D02*
X163968333Y-99682557D01*
X164873095Y-99587319D02*
X164396905Y-99587319D01*
X164396905Y-99587319D02*
X164349286Y-100063509D01*
X164349286Y-100063509D02*
X164396905Y-100015890D01*
X164396905Y-100015890D02*
X164492143Y-99968271D01*
X164492143Y-99968271D02*
X164730238Y-99968271D01*
X164730238Y-99968271D02*
X164825476Y-100015890D01*
X164825476Y-100015890D02*
X164873095Y-100063509D01*
X164873095Y-100063509D02*
X164920714Y-100158747D01*
X164920714Y-100158747D02*
X164920714Y-100396842D01*
X164920714Y-100396842D02*
X164873095Y-100492080D01*
X164873095Y-100492080D02*
X164825476Y-100539700D01*
X164825476Y-100539700D02*
X164730238Y-100587319D01*
X164730238Y-100587319D02*
X164492143Y-100587319D01*
X164492143Y-100587319D02*
X164396905Y-100539700D01*
X164396905Y-100539700D02*
X164349286Y-100492080D01*
X150524819Y-125767857D02*
X150048628Y-126101190D01*
X150524819Y-126339285D02*
X149524819Y-126339285D01*
X149524819Y-126339285D02*
X149524819Y-125958333D01*
X149524819Y-125958333D02*
X149572438Y-125863095D01*
X149572438Y-125863095D02*
X149620057Y-125815476D01*
X149620057Y-125815476D02*
X149715295Y-125767857D01*
X149715295Y-125767857D02*
X149858152Y-125767857D01*
X149858152Y-125767857D02*
X149953390Y-125815476D01*
X149953390Y-125815476D02*
X150001009Y-125863095D01*
X150001009Y-125863095D02*
X150048628Y-125958333D01*
X150048628Y-125958333D02*
X150048628Y-126339285D01*
X150524819Y-124815476D02*
X150524819Y-125386904D01*
X150524819Y-125101190D02*
X149524819Y-125101190D01*
X149524819Y-125101190D02*
X149667676Y-125196428D01*
X149667676Y-125196428D02*
X149762914Y-125291666D01*
X149762914Y-125291666D02*
X149810533Y-125386904D01*
X150524819Y-123863095D02*
X150524819Y-124434523D01*
X150524819Y-124148809D02*
X149524819Y-124148809D01*
X149524819Y-124148809D02*
X149667676Y-124244047D01*
X149667676Y-124244047D02*
X149762914Y-124339285D01*
X149762914Y-124339285D02*
X149810533Y-124434523D01*
X154114819Y-116291666D02*
X153638628Y-116624999D01*
X154114819Y-116863094D02*
X153114819Y-116863094D01*
X153114819Y-116863094D02*
X153114819Y-116482142D01*
X153114819Y-116482142D02*
X153162438Y-116386904D01*
X153162438Y-116386904D02*
X153210057Y-116339285D01*
X153210057Y-116339285D02*
X153305295Y-116291666D01*
X153305295Y-116291666D02*
X153448152Y-116291666D01*
X153448152Y-116291666D02*
X153543390Y-116339285D01*
X153543390Y-116339285D02*
X153591009Y-116386904D01*
X153591009Y-116386904D02*
X153638628Y-116482142D01*
X153638628Y-116482142D02*
X153638628Y-116863094D01*
X154114819Y-115339285D02*
X154114819Y-115910713D01*
X154114819Y-115624999D02*
X153114819Y-115624999D01*
X153114819Y-115624999D02*
X153257676Y-115720237D01*
X153257676Y-115720237D02*
X153352914Y-115815475D01*
X153352914Y-115815475D02*
X153400533Y-115910713D01*
X155764819Y-116316666D02*
X155288628Y-116649999D01*
X155764819Y-116888094D02*
X154764819Y-116888094D01*
X154764819Y-116888094D02*
X154764819Y-116507142D01*
X154764819Y-116507142D02*
X154812438Y-116411904D01*
X154812438Y-116411904D02*
X154860057Y-116364285D01*
X154860057Y-116364285D02*
X154955295Y-116316666D01*
X154955295Y-116316666D02*
X155098152Y-116316666D01*
X155098152Y-116316666D02*
X155193390Y-116364285D01*
X155193390Y-116364285D02*
X155241009Y-116411904D01*
X155241009Y-116411904D02*
X155288628Y-116507142D01*
X155288628Y-116507142D02*
X155288628Y-116888094D01*
X154860057Y-115935713D02*
X154812438Y-115888094D01*
X154812438Y-115888094D02*
X154764819Y-115792856D01*
X154764819Y-115792856D02*
X154764819Y-115554761D01*
X154764819Y-115554761D02*
X154812438Y-115459523D01*
X154812438Y-115459523D02*
X154860057Y-115411904D01*
X154860057Y-115411904D02*
X154955295Y-115364285D01*
X154955295Y-115364285D02*
X155050533Y-115364285D01*
X155050533Y-115364285D02*
X155193390Y-115411904D01*
X155193390Y-115411904D02*
X155764819Y-115983332D01*
X155764819Y-115983332D02*
X155764819Y-115364285D01*
D11*
X159792500Y-116387258D02*
X159792500Y-115912742D01*
X160837500Y-116387258D02*
X160837500Y-115912742D01*
X167700000Y-112900000D02*
X168880000Y-112900000D01*
X167700000Y-113710000D02*
X167700000Y-112900000D01*
X167700000Y-114520000D02*
X167700000Y-116995000D01*
X167700000Y-114520000D02*
X168213292Y-114520000D01*
X167700000Y-116995000D02*
X168562077Y-116995000D01*
X169197923Y-116995000D02*
X169832077Y-116995000D01*
X170467923Y-112965000D02*
X171330000Y-112965000D01*
X170467923Y-116995000D02*
X171330000Y-116995000D01*
X171330000Y-112965000D02*
X171330000Y-116995000D01*
X162337742Y-110802500D02*
X162812258Y-110802500D01*
X162337742Y-111847500D02*
X162812258Y-111847500D01*
X152352500Y-122162258D02*
X152352500Y-121687742D01*
X153397500Y-122162258D02*
X153397500Y-121687742D01*
X154509420Y-125790000D02*
X154790580Y-125790000D01*
X154509420Y-126810000D02*
X154790580Y-126810000D01*
X150777500Y-122162258D02*
X150777500Y-121687742D01*
X151822500Y-122162258D02*
X151822500Y-121687742D01*
X131690000Y-111847500D02*
X131690000Y-110687500D01*
X132500000Y-111847500D02*
X131690000Y-111847500D01*
X133310000Y-109527500D02*
X137055000Y-109527500D01*
X133310000Y-110020792D02*
X133310000Y-109527500D01*
X133310000Y-111847500D02*
X133310000Y-111354208D01*
X133310000Y-111847500D02*
X137055000Y-111847500D01*
X137055000Y-110369577D02*
X137055000Y-109527500D01*
X137055000Y-111847500D02*
X137055000Y-111005423D01*
X161315000Y-115562500D02*
X161315000Y-114762500D01*
X161315000Y-115562500D02*
X161315000Y-116362500D01*
X164435000Y-115562500D02*
X164435000Y-114762500D01*
X164435000Y-115562500D02*
X164435000Y-116362500D01*
X161365000Y-116862500D02*
X161035000Y-117102500D01*
X161035000Y-116622500D01*
X161365000Y-116862500D01*
G36*
X161365000Y-116862500D02*
G01*
X161035000Y-117102500D01*
X161035000Y-116622500D01*
X161365000Y-116862500D01*
G37*
X157055000Y-119184420D02*
X157055000Y-119465580D01*
X158075000Y-119184420D02*
X158075000Y-119465580D01*
X158880000Y-119134420D02*
X158880000Y-119415580D01*
X159900000Y-119134420D02*
X159900000Y-119415580D01*
X166190000Y-113865000D02*
X166190000Y-116325000D01*
X167660000Y-113865000D02*
X166190000Y-113865000D01*
X167660000Y-116325000D02*
X167660000Y-113865000D01*
X162684420Y-123915000D02*
X162965580Y-123915000D01*
X162684420Y-124935000D02*
X162965580Y-124935000D01*
X154959420Y-118990000D02*
X155240580Y-118990000D01*
X154959420Y-120010000D02*
X155240580Y-120010000D01*
X150715000Y-110725000D02*
X150715000Y-108775000D01*
X150715000Y-110725000D02*
X150715000Y-112675000D01*
X160835000Y-110725000D02*
X160835000Y-108775000D01*
X160835000Y-110725000D02*
X160835000Y-112675000D01*
X150770000Y-113450000D02*
X150440000Y-113690000D01*
X150440000Y-113210000D01*
X150770000Y-113450000D01*
G36*
X150770000Y-113450000D02*
G01*
X150440000Y-113690000D01*
X150440000Y-113210000D01*
X150770000Y-113450000D01*
G37*
X162684420Y-125515000D02*
X162965580Y-125515000D01*
X162684420Y-126535000D02*
X162965580Y-126535000D01*
X164827500Y-111987742D02*
X164827500Y-112462258D01*
X165872500Y-111987742D02*
X165872500Y-112462258D01*
X161555000Y-107370000D02*
X161555000Y-110130000D01*
X164205000Y-107370000D02*
X161555000Y-107370000D01*
X164205000Y-107370000D02*
X164205000Y-110130000D01*
X164205000Y-110130000D02*
X161555000Y-110130000D01*
X165475000Y-107370000D02*
X166855000Y-107370000D01*
X166855000Y-107370000D02*
X166855000Y-108750000D01*
D12*
X157567500Y-121757500D02*
X157787500Y-121757500D01*
X157567500Y-122477500D02*
X157567500Y-121757500D01*
X157567500Y-124757500D02*
X157567500Y-124237500D01*
X160047500Y-121757500D02*
X160267500Y-121757500D01*
X160267500Y-121757500D02*
X160267500Y-122477500D01*
X160267500Y-124957500D02*
X160047500Y-124957500D01*
X160267500Y-124957500D02*
X160267500Y-124237500D01*
X157567500Y-125317500D02*
X157207500Y-124957500D01*
X157567500Y-124957500D01*
X157567500Y-125317500D01*
G36*
X157567500Y-125317500D02*
G01*
X157207500Y-124957500D01*
X157567500Y-124957500D01*
X157567500Y-125317500D01*
G37*
D11*
X153865095Y-125274359D02*
G75*
G02*
X153962133Y-123825000I-320095J749359D01*
G01*
X169015580Y-107290000D02*
X168734420Y-107290000D01*
X169015580Y-108310000D02*
X168734420Y-108310000D01*
X164852500Y-115087742D02*
X164852500Y-115562258D01*
X165897500Y-115087742D02*
X165897500Y-115562258D01*
X166165000Y-111425000D02*
X166165000Y-113710000D01*
X166165000Y-113710000D02*
X167635000Y-113710000D01*
X167635000Y-113710000D02*
X167635000Y-111425000D01*
X162812221Y-112165000D02*
X163137779Y-112165000D01*
X162812221Y-113185000D02*
X163137779Y-113185000D01*
X151874420Y-118965000D02*
X152155580Y-118965000D01*
X151874420Y-119985000D02*
X152155580Y-119985000D01*
X168225000Y-118375000D02*
X168225000Y-111875000D01*
X170825000Y-111875000D02*
X170825000Y-118375000D01*
X166240000Y-118100000D02*
X166240000Y-120560000D01*
X166240000Y-120560000D02*
X167710000Y-120560000D01*
X167710000Y-120560000D02*
X167710000Y-118100000D01*
X161440000Y-119812500D02*
X161440000Y-119012500D01*
X161440000Y-119812500D02*
X161440000Y-120612500D01*
X164560000Y-119812500D02*
X164560000Y-119012500D01*
X164560000Y-119812500D02*
X164560000Y-120612500D01*
X161490000Y-121112500D02*
X161160000Y-121352500D01*
X161160000Y-120872500D01*
X161490000Y-121112500D01*
G36*
X161490000Y-121112500D02*
G01*
X161160000Y-121352500D01*
X161160000Y-120872500D01*
X161490000Y-121112500D01*
G37*
X159115580Y-125565000D02*
X158834420Y-125565000D01*
X159115580Y-126585000D02*
X158834420Y-126585000D01*
X123985000Y-107462500D02*
X130185000Y-107462500D01*
X123985000Y-125862500D02*
X123985000Y-107462500D01*
X123985000Y-125862500D02*
X130185000Y-125862500D01*
X148835000Y-125862500D02*
X149835000Y-125862500D01*
X149835000Y-107462500D02*
X148835000Y-107462500D01*
X149835000Y-107462500D02*
X149835000Y-108962500D01*
X149835000Y-125862500D02*
X149835000Y-124362500D01*
X130860000Y-126362500D02*
X130360000Y-125862500D01*
X130860000Y-125862500D01*
X130860000Y-126362500D01*
G36*
X130860000Y-126362500D02*
G01*
X130360000Y-125862500D01*
X130860000Y-125862500D01*
X130860000Y-126362500D01*
G37*
X155352500Y-122137258D02*
X155352500Y-121662742D01*
X156397500Y-122137258D02*
X156397500Y-121662742D01*
X157892500Y-115912742D02*
X157892500Y-116387258D01*
X158937500Y-115912742D02*
X158937500Y-116387258D01*
X162587742Y-122252500D02*
X163062258Y-122252500D01*
X162587742Y-123297500D02*
X163062258Y-123297500D01*
X150730000Y-116587500D02*
X150730000Y-115937500D01*
X150730000Y-116587500D02*
X150730000Y-117237500D01*
X153850000Y-116587500D02*
X153850000Y-115937500D01*
X153850000Y-116587500D02*
X153850000Y-117237500D01*
X154130000Y-115665000D02*
X153800000Y-115425000D01*
X154130000Y-115185000D01*
X154130000Y-115665000D01*
G36*
X154130000Y-115665000D02*
G01*
X153800000Y-115425000D01*
X154130000Y-115185000D01*
X154130000Y-115665000D01*
G37*
X164940000Y-119915580D02*
X164940000Y-119634420D01*
X165960000Y-119915580D02*
X165960000Y-119634420D01*
X150977500Y-125362258D02*
X150977500Y-124887742D01*
X152022500Y-125362258D02*
X152022500Y-124887742D01*
X154567500Y-116362258D02*
X154567500Y-115887742D01*
X155612500Y-116362258D02*
X155612500Y-115887742D01*
X156217500Y-116387258D02*
X156217500Y-115912742D01*
X157262500Y-116387258D02*
X157262500Y-115912742D01*
%LPC*%
D13*
X160315000Y-116975000D03*
X160315000Y-115325000D03*
D14*
X168880000Y-113710000D03*
D15*
X170150000Y-113710000D03*
X168880000Y-114980000D03*
X170150000Y-114980000D03*
X168880000Y-116250000D03*
X170150000Y-116250000D03*
D16*
X161750000Y-111325000D03*
X163400000Y-111325000D03*
D13*
X152875000Y-122750000D03*
X152875000Y-121100000D03*
D17*
X153875000Y-126300000D03*
X155425000Y-126300000D03*
D13*
X151300000Y-122750000D03*
X151300000Y-121100000D03*
D14*
X132500000Y-110687500D03*
D15*
X133770000Y-110687500D03*
X135040000Y-110687500D03*
X136310000Y-110687500D03*
D18*
X161925000Y-116700000D03*
X162875000Y-116700000D03*
X163825000Y-116700000D03*
X163825000Y-114425000D03*
X161925000Y-114425000D03*
D19*
X157565000Y-118550000D03*
X157565000Y-120100000D03*
X159390000Y-118500000D03*
X159390000Y-120050000D03*
D20*
X166925000Y-114650000D03*
X166925000Y-116400000D03*
D17*
X162050000Y-124425000D03*
X163600000Y-124425000D03*
X154325000Y-119500000D03*
X155875000Y-119500000D03*
D21*
X151330000Y-113225000D03*
X152600000Y-113225000D03*
X153870000Y-113225000D03*
X155140000Y-113225000D03*
X156410000Y-113225000D03*
X157680000Y-113225000D03*
X158950000Y-113225000D03*
X160220000Y-113225000D03*
X160220000Y-108225000D03*
X158950000Y-108225000D03*
X157680000Y-108225000D03*
X156410000Y-108225000D03*
X155140000Y-108225000D03*
X153870000Y-108225000D03*
X152600000Y-108225000D03*
X151330000Y-108225000D03*
D17*
X162050000Y-126025000D03*
X163600000Y-126025000D03*
D22*
X120775000Y-124125000D03*
D23*
X165350000Y-111400000D03*
X165350000Y-113050000D03*
D24*
X165475000Y-108750000D03*
D25*
X162935000Y-108750000D03*
D26*
X158167500Y-124620000D03*
X158667500Y-124620000D03*
X159167500Y-124620000D03*
X159667500Y-124620000D03*
D27*
X159930000Y-123857500D03*
X159930000Y-123357500D03*
X159930000Y-122857500D03*
D26*
X159667500Y-122095000D03*
X159167500Y-122095000D03*
X158667500Y-122095000D03*
X158167500Y-122095000D03*
D27*
X157905000Y-122857500D03*
X157905000Y-123357500D03*
X157905000Y-123857500D03*
D28*
X153545000Y-124525000D03*
D29*
X155445000Y-124525000D03*
D30*
X167725000Y-124000000D03*
D22*
X120775000Y-109625000D03*
D31*
X169650000Y-107800000D03*
X168100000Y-107800000D03*
D23*
X165375000Y-114500000D03*
X165375000Y-116150000D03*
D32*
X166900000Y-113012500D03*
X166900000Y-111437500D03*
D33*
X162187500Y-112675000D03*
X163762500Y-112675000D03*
D17*
X151240000Y-119475000D03*
X152790000Y-119475000D03*
D34*
X169525000Y-119405000D03*
X169525000Y-110845000D03*
D35*
X166975000Y-119775000D03*
X166975000Y-118025000D03*
D18*
X162050000Y-120950000D03*
X163000000Y-120950000D03*
X163950000Y-120950000D03*
X163950000Y-118675000D03*
X162050000Y-118675000D03*
D31*
X159750000Y-126075000D03*
X158200000Y-126075000D03*
D36*
X131625000Y-125412500D03*
X132895000Y-125412500D03*
X134165000Y-125412500D03*
X135435000Y-125412500D03*
X136705000Y-125412500D03*
X137975000Y-125412500D03*
X139245000Y-125412500D03*
X140515000Y-125412500D03*
X141785000Y-125412500D03*
X143055000Y-125412500D03*
X144325000Y-125412500D03*
X145595000Y-125412500D03*
X146865000Y-125412500D03*
X148135000Y-125412500D03*
D37*
X149385000Y-123647500D03*
X149385000Y-122377500D03*
X149385000Y-121107500D03*
X149385000Y-119837500D03*
X149385000Y-118567500D03*
X149385000Y-117297500D03*
X149385000Y-116027500D03*
X149385000Y-114757500D03*
X149385000Y-113487500D03*
X149385000Y-112217500D03*
X149385000Y-110947500D03*
X149385000Y-109677500D03*
D36*
X148135000Y-107912500D03*
X146865000Y-107912500D03*
X145595000Y-107912500D03*
X144325000Y-107912500D03*
X143055000Y-107912500D03*
X141785000Y-107912500D03*
X140515000Y-107912500D03*
X139245000Y-107912500D03*
X137975000Y-107912500D03*
X136705000Y-107912500D03*
X135435000Y-107912500D03*
X134165000Y-107912500D03*
X132895000Y-107912500D03*
X131625000Y-107912500D03*
D38*
X138645000Y-119562500D03*
X140045000Y-119562500D03*
X137945000Y-118862500D03*
X139345000Y-118862500D03*
X140745000Y-118862500D03*
X138645000Y-118162500D03*
D39*
X139345000Y-118162500D03*
D38*
X140045000Y-118162500D03*
X137945000Y-117462500D03*
X139345000Y-117462500D03*
X140745000Y-117462500D03*
X138645000Y-116762500D03*
X140045000Y-116762500D03*
D13*
X155875000Y-122725000D03*
X155875000Y-121075000D03*
D23*
X158415000Y-115325000D03*
X158415000Y-116975000D03*
D16*
X162000000Y-122775000D03*
X163650000Y-122775000D03*
D40*
X153240000Y-115650000D03*
X151340000Y-115650000D03*
X152290000Y-117525000D03*
D41*
X165450000Y-120550000D03*
X165450000Y-119000000D03*
D13*
X151500000Y-125950000D03*
X151500000Y-124300000D03*
X155090000Y-116950000D03*
X155090000Y-115300000D03*
X156740000Y-116975000D03*
X156740000Y-115325000D03*
%LPD*%
M02*
