M48
; DRILL file {KiCad 9.0.1-9.0.1-0~ubuntu22.04.1} date 2025-06-25T02:24:25+0200
; FORMAT={-:-/ absolute / metric / decimal}
; #@! TF.CreationDate,2025-06-25T02:24:25+02:00
; #@! TF.GenerationSoftware,Kicad,Pcbnew,9.0.1-9.0.1-0~ubuntu22.04.1
; #@! TF.FileFunction,Plated,1,2,PTH
FMAT,2
METRIC
; #@! TA.AperFunction,Plated,PTH,ComponentDrill
T1C0.200
; #@! TA.AperFunction,Plated,PTH,ViaDrill
T2C0.300
; #@! TA.AperFunction,Plated,PTH,ComponentDrill
T3C0.650
; #@! TA.AperFunction,Plated,PTH,ComponentDrill
T4C0.700
; #@! TA.AperFunction,Plated,PTH,ComponentDrill
T5C1.000
; #@! TA.AperFunction,Plated,PTH,ComponentDrill
T6C3.200
%
G90
G05
T1
X137.945Y-117.462
X137.945Y-118.862
X138.645Y-116.762
X138.645Y-118.162
X138.645Y-119.562
X139.345Y-117.462
X139.345Y-118.862
X140.045Y-116.762
X140.045Y-118.162
X140.045Y-119.562
X140.745Y-117.462
X140.745Y-118.862
T2
X130.825Y-121.125
X130.875Y-110.525
X130.875Y-111.425
X130.875Y-112.475
X130.875Y-115.85
X130.875Y-116.775
X130.875Y-117.825
X130.875Y-118.825
X130.875Y-120.0
X130.9Y-109.525
X130.9Y-113.275
X130.9Y-114.65
X130.9Y-122.4
X133.175Y-120.8
X133.375Y-123.725
X133.775Y-114.175
X134.175Y-124.325
X134.45Y-109.25
X135.4Y-122.1
X136.4Y-116.7
X136.55Y-113.4
X138.089Y-110.486
X138.326Y-109.721
X141.201Y-112.524
X142.05Y-109.4
X142.7Y-118.925
X143.175Y-109.474
X143.225Y-122.825
X144.325Y-124.1
X144.65Y-118.172
X145.0Y-122.824
X146.0Y-120.525
X147.3Y-114.625
X147.599Y-117.226
X148.135Y-124.025
X149.5Y-124.675
X150.075Y-108.175
X150.2Y-125.525
X150.848Y-120.431
X152.278Y-123.608
X153.425Y-117.95
X153.472Y-121.925
X153.577Y-112.702
X154.362Y-110.074
X154.45Y-120.85
X154.61Y-122.894
X155.366Y-118.074
X156.41Y-110.074
X157.105Y-114.43
X157.206Y-123.957
X157.725Y-109.825
X158.304Y-119.813
X158.375Y-120.856
X158.764Y-117.654
X159.8Y-110.075
X160.301Y-117.875
X160.319Y-119.558
X160.324Y-125.101
X160.673Y-121.023
X160.736Y-111.838
X161.083Y-122.74
X161.325Y-115.535
X162.022Y-113.25
X162.725Y-114.892
X162.787Y-111.737
X162.867Y-122.112
X163.175Y-118.675
X163.575Y-112.85
X164.614Y-113.791
X164.9Y-126.375
X165.484Y-121.578
X165.5Y-120.55
X165.615Y-112.785
X165.75Y-117.649
X166.239Y-115.525
X166.3Y-110.55
X166.533Y-116.735
X166.915Y-114.085
X167.338Y-108.915
X167.927Y-115.947
X168.125Y-114.324
X169.525Y-119.405
X169.775Y-108.725
X170.225Y-121.325
X170.288Y-117.113
X171.025Y-125.775
X171.164Y-111.636
X171.225Y-119.175
X171.225Y-122.625
T3
X132.5Y-110.688
X133.77Y-110.688
X135.04Y-110.688
X136.31Y-110.688
X168.88Y-113.71
X168.88Y-114.98
X168.88Y-116.25
X170.15Y-113.71
X170.15Y-114.98
X170.15Y-116.25
T4
X153.545Y-124.525
X155.445Y-124.525
T5
X162.935Y-108.75
X165.475Y-108.75
T6
X167.725Y-124.0
M30
