G04 #@! TF.GenerationSoftware,KiCad,Pcbnew,9.0.1-9.0.1-0~ubuntu22.04.1*
G04 #@! TF.CreationDate,2025-06-25T02:31:38+02:00*
G04 #@! TF.ProjectId,powermeter2.1,706f7765-726d-4657-9465-72322e312e6b,rev?*
G04 #@! TF.SameCoordinates,Original*
G04 #@! TF.FileFunction,Copper,L2,Bot*
G04 #@! TF.FilePolarity,Positive*
%FSLAX46Y46*%
G04 Gerber Fmt 4.6, Leading zero omitted, Abs format (unit mm)*
G04 Created by KiCad (PCBNEW 9.0.1-9.0.1-0~ubuntu22.04.1) date 2025-06-25 02:31:38*
%MOMM*%
%LPD*%
G01*
G04 APERTURE LIST*
G04 #@! TA.AperFunction,ComponentPad*
%ADD10R,1.000000X1.000000*%
G04 #@! TD*
G04 #@! TA.AperFunction,ComponentPad*
%ADD11C,1.000000*%
G04 #@! TD*
G04 #@! TA.AperFunction,ComponentPad*
%ADD12R,1.700000X1.700000*%
G04 #@! TD*
G04 #@! TA.AperFunction,ComponentPad*
%ADD13C,1.700000*%
G04 #@! TD*
G04 #@! TA.AperFunction,ComponentPad*
%ADD14C,1.400000*%
G04 #@! TD*
G04 #@! TA.AperFunction,ComponentPad*
%ADD15O,1.400000X1.400000*%
G04 #@! TD*
G04 #@! TA.AperFunction,ComponentPad*
%ADD16C,5.600000*%
G04 #@! TD*
G04 #@! TA.AperFunction,HeatsinkPad*
%ADD17C,0.600000*%
G04 #@! TD*
G04 #@! TA.AperFunction,ViaPad*
%ADD18C,0.600000*%
G04 #@! TD*
G04 #@! TA.AperFunction,Conductor*
%ADD19C,0.200000*%
G04 #@! TD*
G04 APERTURE END LIST*
D10*
X168880000Y-113710000D03*
D11*
X170150000Y-113710000D03*
X168880000Y-114980000D03*
X170150000Y-114980000D03*
X168880000Y-116250000D03*
X170150000Y-116250000D03*
D10*
X132500000Y-110687500D03*
D11*
X133770000Y-110687500D03*
X135040000Y-110687500D03*
X136310000Y-110687500D03*
D12*
X165475000Y-108750000D03*
D13*
X162935000Y-108750000D03*
D14*
X153545000Y-124525000D03*
D15*
X155445000Y-124525000D03*
D16*
X167725000Y-124000000D03*
D17*
X138645000Y-119562500D03*
X140045000Y-119562500D03*
X137945000Y-118862500D03*
X139345000Y-118862500D03*
X140745000Y-118862500D03*
X138645000Y-118162500D03*
X140045000Y-118162500D03*
X137945000Y-117462500D03*
X139345000Y-117462500D03*
X140745000Y-117462500D03*
X138645000Y-116762500D03*
X140045000Y-116762500D03*
D18*
X161325000Y-115534868D03*
X166239292Y-115525000D03*
X157725000Y-109825000D03*
X133375000Y-123725000D03*
X168125000Y-114324276D03*
X159800000Y-110075000D03*
X152278003Y-123607590D03*
X170288235Y-117113235D03*
X164900000Y-126375000D03*
X135400000Y-122100000D03*
X146000000Y-120525000D03*
X171225000Y-122625000D03*
X133175000Y-120800000D03*
X130875000Y-117825000D03*
X130900000Y-122400000D03*
X130875000Y-118825000D03*
X165615281Y-112784721D03*
X130875000Y-115850000D03*
X160318656Y-119557817D03*
X130875000Y-116775000D03*
X162725000Y-114892310D03*
X130900000Y-114650000D03*
X165500000Y-120550000D03*
X170225000Y-121325000D03*
X171164265Y-111635735D03*
X130875000Y-112475000D03*
X166915280Y-114084720D03*
X160672766Y-121022766D03*
X150848405Y-120431066D03*
X136400000Y-116700000D03*
X171225000Y-119175000D03*
X171025000Y-125775000D03*
X136550000Y-113400000D03*
X133775000Y-114175000D03*
X130900000Y-113275000D03*
X130875000Y-111425000D03*
X142700000Y-118925000D03*
X158304387Y-119812917D03*
X160301230Y-117875000D03*
X130875000Y-120000000D03*
X130875000Y-110525000D03*
X130825000Y-121125000D03*
X130900000Y-109525000D03*
X155365735Y-118074265D03*
X157104606Y-114429911D03*
X161083319Y-122739660D03*
X163175000Y-118675000D03*
X169775000Y-108725000D03*
X167337723Y-108914635D03*
X147599294Y-117225706D03*
X158375000Y-120856500D03*
X154450000Y-120850000D03*
X166533395Y-116734868D03*
X165750473Y-117649000D03*
X169525000Y-119405000D03*
X154610263Y-122894210D03*
X162787500Y-111737500D03*
X166300000Y-110550357D03*
X134175000Y-124325000D03*
X164613615Y-113791248D03*
X148134998Y-124025000D03*
X149500000Y-124675000D03*
X153471710Y-121924999D03*
X143225000Y-122825000D03*
X157206028Y-123957500D03*
X150200000Y-125525000D03*
X144325000Y-124100000D03*
X142050000Y-109400000D03*
X154361760Y-110074000D03*
X143175000Y-109474000D03*
X156409526Y-110074000D03*
X145000000Y-122824000D03*
X160324485Y-125100515D03*
X138326112Y-109721409D03*
X147300000Y-114625000D03*
X138089408Y-110485592D03*
X167927156Y-115946538D03*
X162867037Y-122112500D03*
X165483988Y-121577630D03*
X134450000Y-109250000D03*
X150075000Y-108175000D03*
X162022409Y-113249696D03*
X153425000Y-117950000D03*
X144650000Y-118172300D03*
X160735630Y-111837557D03*
X141200764Y-112524236D03*
X158763988Y-117654293D03*
X163575000Y-112850000D03*
X153576553Y-112701656D03*
D19*
X162022409Y-113249696D02*
X154974536Y-113249696D01*
X146699000Y-114376057D02*
X146699000Y-114873943D01*
X154974536Y-113249696D02*
X153825496Y-112100656D01*
X153825496Y-112100656D02*
X148974401Y-112100656D01*
X148974401Y-112100656D02*
X146699000Y-114376057D01*
X146699000Y-114873943D02*
X147051057Y-115226000D01*
X147051057Y-115226000D02*
X150701000Y-115226000D01*
X150701000Y-115226000D02*
X153425000Y-117950000D01*
X163575000Y-112850000D02*
X162574304Y-113850696D01*
X162574304Y-113850696D02*
X158011000Y-113850696D01*
X158011000Y-113850696D02*
X157811000Y-113650696D01*
X154525593Y-113650696D02*
X153576553Y-112701656D01*
X157811000Y-113650696D02*
X154525593Y-113650696D01*
X166239292Y-115525000D02*
X164657690Y-115525000D01*
X168739276Y-113710000D02*
X168125000Y-114324276D01*
X166239291Y-115525000D02*
X166206601Y-115492310D01*
X143475943Y-123424000D02*
X143174943Y-123725000D01*
X152094413Y-123424000D02*
X143475943Y-123424000D01*
X164625000Y-115492310D02*
X161367558Y-115492310D01*
X161367558Y-115492310D02*
X161325000Y-115534868D01*
X164657690Y-115525000D02*
X164625000Y-115492310D01*
X143174943Y-123725000D02*
X133375000Y-123725000D01*
X152278003Y-123607590D02*
X152094413Y-123424000D01*
X168880000Y-113710000D02*
X168739276Y-113710000D01*
X159550000Y-109825000D02*
X157725000Y-109825000D01*
X166206601Y-115492310D02*
X164625000Y-115492310D01*
X159800000Y-110075000D02*
X159550000Y-109825000D01*
X165500000Y-120550000D02*
X169450000Y-120550000D01*
X160242304Y-117875000D02*
X160301230Y-117875000D01*
X171352000Y-115048000D02*
X171352000Y-111823470D01*
X169450000Y-120550000D02*
X170225000Y-121325000D01*
X170150000Y-116250000D02*
X171352000Y-115048000D01*
X160318656Y-119557817D02*
X160318656Y-120668656D01*
X160318656Y-120668656D02*
X160672766Y-121022766D01*
X162725000Y-114892310D02*
X162725000Y-114549943D01*
X169358477Y-120550000D02*
X165500000Y-120550000D01*
X170288235Y-119620242D02*
X169358477Y-120550000D01*
X171352000Y-111823470D02*
X171164265Y-111635735D01*
X166915280Y-114084720D02*
X165615281Y-112784721D01*
X158304387Y-119812917D02*
X160242304Y-117875000D01*
X170288235Y-117113235D02*
X170288235Y-119620242D01*
X164490222Y-112784721D02*
X165615281Y-112784721D01*
X162725000Y-114549943D02*
X164490222Y-112784721D01*
X157104606Y-114429911D02*
X157040000Y-114494517D01*
X157040000Y-114494517D02*
X157040000Y-116400000D01*
X157040000Y-116400000D02*
X155365735Y-118074265D01*
X161083319Y-122466681D02*
X163425000Y-120125000D01*
X161083319Y-122739660D02*
X161083319Y-122466681D01*
X163175000Y-119875000D02*
X163175000Y-118675000D01*
X163425000Y-120125000D02*
X163175000Y-119875000D01*
X167527358Y-108725000D02*
X169775000Y-108725000D01*
X167337723Y-108914635D02*
X167527358Y-108725000D01*
X162291305Y-116734868D02*
X166533395Y-116734868D01*
X150825706Y-117225706D02*
X154450000Y-120850000D01*
X158375000Y-120856500D02*
X158375000Y-120651173D01*
X147599294Y-117225706D02*
X150825706Y-117225706D01*
X158375000Y-120651173D02*
X162291305Y-116734868D01*
X164763443Y-121511500D02*
X164900000Y-121374943D01*
X169525000Y-119405000D02*
X169420000Y-119300000D01*
X154729473Y-122775000D02*
X157149027Y-122775000D01*
X164900000Y-121374943D02*
X164900000Y-118950000D01*
X154610263Y-122894210D02*
X154729473Y-122775000D01*
X160075542Y-125701515D02*
X161125000Y-125701515D01*
X169420000Y-119300000D02*
X167136500Y-119300000D01*
X154610263Y-122894210D02*
X154577236Y-122927236D01*
X154100000Y-123970000D02*
X153545000Y-124525000D01*
X167136500Y-119300000D02*
X166661500Y-118825000D01*
X161125000Y-125701515D02*
X161886805Y-124939710D01*
X157149027Y-122775000D02*
X160075542Y-125701515D01*
X161886805Y-122242789D02*
X162618094Y-121511500D01*
X161886805Y-124939710D02*
X161886805Y-122242789D01*
X164900000Y-118950000D02*
X164900000Y-118499473D01*
X164900000Y-118825000D02*
X164900000Y-118950000D01*
X154100000Y-123404473D02*
X154100000Y-123970000D01*
X154577236Y-122927236D02*
X154100000Y-123404473D01*
X164900000Y-118499473D02*
X165750473Y-117649000D01*
X162618094Y-121511500D02*
X164763443Y-121511500D01*
X166661500Y-118825000D02*
X164900000Y-118825000D01*
X131699000Y-109886500D02*
X131699000Y-122898943D01*
X148700000Y-111477000D02*
X145209300Y-114967700D01*
X170951000Y-113378214D02*
X170951000Y-114179000D01*
X160173000Y-112675000D02*
X158975000Y-111477000D01*
X168147786Y-110575000D02*
X170951000Y-113378214D01*
X131699000Y-122898943D02*
X133125057Y-124325000D01*
X170951000Y-114179000D02*
X170150000Y-114980000D01*
X166300000Y-110550357D02*
X167950357Y-110550357D01*
X145209300Y-114967700D02*
X141722986Y-114967700D01*
X141722986Y-114967700D02*
X136641786Y-109886500D01*
X167975000Y-110575000D02*
X168147786Y-110575000D01*
X158975000Y-111477000D02*
X148700000Y-111477000D01*
X161850000Y-112675000D02*
X160173000Y-112675000D01*
X162787500Y-111737500D02*
X161850000Y-112675000D01*
X133125057Y-124325000D02*
X134175000Y-124325000D01*
X167950357Y-110550357D02*
X167975000Y-110575000D01*
X136641786Y-109886500D02*
X131699000Y-109886500D01*
X148784998Y-124675000D02*
X148134998Y-124025000D01*
X149500000Y-124675000D02*
X148784998Y-124675000D01*
X153446711Y-121900000D02*
X144150000Y-121900000D01*
X153471710Y-121924999D02*
X153571711Y-122025000D01*
X144150000Y-121900000D02*
X143225000Y-122825000D01*
X153471710Y-121924999D02*
X153446711Y-121900000D01*
X153571711Y-122025000D02*
X153700000Y-122025000D01*
X145750000Y-125525000D02*
X144325000Y-124100000D01*
X150200000Y-125525000D02*
X145750000Y-125525000D01*
X155860628Y-125525000D02*
X150200000Y-125525000D01*
X157206028Y-124179600D02*
X155860628Y-125525000D01*
X157206028Y-123957500D02*
X157206028Y-124179600D01*
X142724000Y-110074000D02*
X142050000Y-109400000D01*
X154361760Y-110074000D02*
X142724000Y-110074000D01*
X155808526Y-109473000D02*
X143176000Y-109473000D01*
X143176000Y-109473000D02*
X143175000Y-109474000D01*
X156409526Y-110074000D02*
X155808526Y-109473000D01*
X160324485Y-125100515D02*
X157548970Y-122325000D01*
X157548970Y-122325000D02*
X154925000Y-122325000D01*
X154081790Y-122293210D02*
X153551000Y-122824000D01*
X153551000Y-122824000D02*
X145000000Y-122824000D01*
X154925000Y-122325000D02*
X154893210Y-122293210D01*
X154925000Y-122325000D02*
X154800000Y-122325000D01*
X154893210Y-122293210D02*
X154081790Y-122293210D01*
X168222000Y-111450000D02*
X163999131Y-111450000D01*
X163999131Y-111450000D02*
X161348131Y-108799000D01*
X170150000Y-113710000D02*
X170150000Y-113378000D01*
X170150000Y-113378000D02*
X168222000Y-111450000D01*
X139248521Y-108799000D02*
X138326112Y-109721409D01*
X161348131Y-108799000D02*
X139248521Y-108799000D01*
X168380001Y-116749999D02*
X168880000Y-116250000D01*
X167266956Y-116134868D02*
X167882087Y-116749999D01*
X167882087Y-116749999D02*
X168380001Y-116749999D01*
X151066527Y-114625000D02*
X155116792Y-118675265D01*
X158155075Y-116134868D02*
X167266956Y-116134868D01*
X155614678Y-118675265D02*
X158155075Y-116134868D01*
X155116792Y-118675265D02*
X155614678Y-118675265D01*
X147300000Y-114625000D02*
X151066527Y-114625000D01*
X167927156Y-115946538D02*
X167725000Y-115744382D01*
X163833031Y-111851000D02*
X162657031Y-110675000D01*
X162657031Y-110675000D02*
X138278816Y-110675000D01*
X167927156Y-115946538D02*
X167507031Y-115526413D01*
X167507031Y-115526413D02*
X167525000Y-115508444D01*
X167725000Y-115744382D02*
X167725000Y-115650000D01*
X138278816Y-110675000D02*
X138089408Y-110485592D01*
X167525000Y-112875000D02*
X166501000Y-111851000D01*
X166501000Y-111851000D02*
X163833031Y-111851000D01*
X167927156Y-115946538D02*
X167610708Y-115630090D01*
X167525000Y-115508444D02*
X167525000Y-112875000D01*
X164929543Y-121912500D02*
X164291172Y-121912500D01*
X164091172Y-122112500D02*
X162867037Y-122112500D01*
X165264413Y-121577630D02*
X164929543Y-121912500D01*
X165483988Y-121577630D02*
X165264413Y-121577630D01*
X164291172Y-121912500D02*
X164091172Y-122112500D01*
X135525000Y-108175000D02*
X134450000Y-109250000D01*
X150075000Y-108175000D02*
X135525000Y-108175000D01*
X159364988Y-117903236D02*
X159364988Y-117405350D01*
X154201057Y-121451000D02*
X155817224Y-121451000D01*
X159364988Y-117405350D02*
X159012931Y-117053293D01*
X156340892Y-119076265D02*
X154551265Y-119076265D01*
X150922357Y-118172300D02*
X144650000Y-118172300D01*
X158363864Y-117053293D02*
X156340892Y-119076265D01*
X154551265Y-119076265D02*
X153425000Y-117950000D01*
X159012931Y-117053293D02*
X158363864Y-117053293D01*
X154201057Y-121451000D02*
X150922357Y-118172300D01*
X155817224Y-121451000D02*
X159364988Y-117903236D01*
X147250000Y-111076000D02*
X159974073Y-111076000D01*
X142649000Y-111076000D02*
X147250000Y-111076000D01*
X159974073Y-111076000D02*
X160735630Y-111837557D01*
X141200764Y-112524236D02*
X142649000Y-111076000D01*
X155051000Y-120601057D02*
X155817224Y-120601057D01*
X136310000Y-110687500D02*
X142247206Y-116624706D01*
X151074649Y-116624706D02*
X155051000Y-120601057D01*
X142247206Y-116624706D02*
X151074649Y-116624706D01*
X155817224Y-120601057D02*
X158763988Y-117654293D01*
X153439000Y-112839209D02*
X153576553Y-112701656D01*
G04 #@! TA.AperFunction,Conductor*
G36*
X171242539Y-106945185D02*
G01*
X171288294Y-106997989D01*
X171299500Y-107049500D01*
X171299500Y-112578117D01*
X171279815Y-112645156D01*
X171227011Y-112690911D01*
X171157853Y-112700855D01*
X171094297Y-112671830D01*
X171087819Y-112665798D01*
X168635376Y-110213355D01*
X168635374Y-110213352D01*
X168516503Y-110094481D01*
X168516495Y-110094475D01*
X168397027Y-110025501D01*
X168397024Y-110025500D01*
X168379571Y-110015423D01*
X168355253Y-110008907D01*
X168226843Y-109974499D01*
X168226840Y-109974499D01*
X168137707Y-109974499D01*
X168105613Y-109970274D01*
X168029414Y-109949856D01*
X167871300Y-109949856D01*
X167863704Y-109949856D01*
X167863688Y-109949857D01*
X167495532Y-109949857D01*
X167428493Y-109930172D01*
X167382738Y-109877368D01*
X167372794Y-109808210D01*
X167401819Y-109744654D01*
X167460597Y-109706880D01*
X167471340Y-109704240D01*
X167543289Y-109689927D01*
X167571220Y-109684372D01*
X167694063Y-109633489D01*
X167716895Y-109624032D01*
X167716895Y-109624031D01*
X167716902Y-109624029D01*
X167848012Y-109536424D01*
X167959512Y-109424924D01*
X167976500Y-109399500D01*
X167989123Y-109380609D01*
X168042736Y-109335804D01*
X168092225Y-109325500D01*
X169195234Y-109325500D01*
X169262273Y-109345185D01*
X169264125Y-109346398D01*
X169395814Y-109434390D01*
X169395827Y-109434397D01*
X169525014Y-109487907D01*
X169541503Y-109494737D01*
X169692900Y-109524852D01*
X169696153Y-109525499D01*
X169696156Y-109525500D01*
X169696158Y-109525500D01*
X169853844Y-109525500D01*
X169853845Y-109525499D01*
X170008497Y-109494737D01*
X170154179Y-109434394D01*
X170285289Y-109346789D01*
X170396789Y-109235289D01*
X170484394Y-109104179D01*
X170544737Y-108958497D01*
X170575500Y-108803842D01*
X170575500Y-108646158D01*
X170575500Y-108646155D01*
X170575499Y-108646153D01*
X170571930Y-108628210D01*
X170544737Y-108491503D01*
X170540081Y-108480263D01*
X170484397Y-108345827D01*
X170484390Y-108345814D01*
X170396789Y-108214711D01*
X170396786Y-108214707D01*
X170285292Y-108103213D01*
X170285288Y-108103210D01*
X170154185Y-108015609D01*
X170154172Y-108015602D01*
X170008501Y-107955264D01*
X170008489Y-107955261D01*
X169853845Y-107924500D01*
X169853842Y-107924500D01*
X169696158Y-107924500D01*
X169696155Y-107924500D01*
X169541510Y-107955261D01*
X169541498Y-107955264D01*
X169395827Y-108015602D01*
X169395814Y-108015609D01*
X169264125Y-108103602D01*
X169197447Y-108124480D01*
X169195234Y-108124500D01*
X167480885Y-108124500D01*
X167456693Y-108122117D01*
X167437292Y-108118258D01*
X167416566Y-108114135D01*
X167416565Y-108114135D01*
X167258881Y-108114135D01*
X167258878Y-108114135D01*
X167104233Y-108144896D01*
X167104226Y-108144898D01*
X166996950Y-108189332D01*
X166927481Y-108196800D01*
X166865002Y-108165524D01*
X166829350Y-108105435D01*
X166825499Y-108074770D01*
X166825499Y-107852129D01*
X166825498Y-107852123D01*
X166825497Y-107852116D01*
X166819091Y-107792517D01*
X166771422Y-107664711D01*
X166768797Y-107657671D01*
X166768793Y-107657664D01*
X166682547Y-107542455D01*
X166682544Y-107542452D01*
X166567335Y-107456206D01*
X166567328Y-107456202D01*
X166432482Y-107405908D01*
X166432483Y-107405908D01*
X166372883Y-107399501D01*
X166372881Y-107399500D01*
X166372873Y-107399500D01*
X166372864Y-107399500D01*
X164577129Y-107399500D01*
X164577123Y-107399501D01*
X164517516Y-107405908D01*
X164382671Y-107456202D01*
X164382664Y-107456206D01*
X164267455Y-107542452D01*
X164267452Y-107542455D01*
X164181206Y-107657664D01*
X164181202Y-107657671D01*
X164130908Y-107792517D01*
X164124501Y-107852116D01*
X164124501Y-107852123D01*
X164124500Y-107852135D01*
X164124500Y-107862690D01*
X164104815Y-107929729D01*
X164088181Y-107950371D01*
X163417962Y-108620590D01*
X163400925Y-108557007D01*
X163335099Y-108442993D01*
X163242007Y-108349901D01*
X163127993Y-108284075D01*
X163064409Y-108267037D01*
X163696716Y-107634728D01*
X163642550Y-107595375D01*
X163453217Y-107498904D01*
X163251129Y-107433242D01*
X163041246Y-107400000D01*
X162828754Y-107400000D01*
X162618872Y-107433242D01*
X162618869Y-107433242D01*
X162416782Y-107498904D01*
X162227439Y-107595380D01*
X162173282Y-107634727D01*
X162173282Y-107634728D01*
X162805591Y-108267037D01*
X162742007Y-108284075D01*
X162627993Y-108349901D01*
X162534901Y-108442993D01*
X162469075Y-108557007D01*
X162452037Y-108620591D01*
X161819728Y-107988282D01*
X161819727Y-107988282D01*
X161780380Y-108042440D01*
X161780378Y-108042443D01*
X161713573Y-108173554D01*
X161665599Y-108224349D01*
X161597778Y-108241144D01*
X161570998Y-108237033D01*
X161427188Y-108198499D01*
X161269074Y-108198499D01*
X161261478Y-108198499D01*
X161261462Y-108198500D01*
X150997622Y-108198500D01*
X150930583Y-108178815D01*
X150884828Y-108126011D01*
X150876005Y-108098692D01*
X150844738Y-107941508D01*
X150844737Y-107941507D01*
X150844737Y-107941503D01*
X150807720Y-107852135D01*
X150784397Y-107795827D01*
X150784387Y-107795809D01*
X150754366Y-107750879D01*
X150754365Y-107750878D01*
X150696789Y-107664711D01*
X150696786Y-107664707D01*
X150585292Y-107553213D01*
X150585288Y-107553210D01*
X150454185Y-107465609D01*
X150454172Y-107465602D01*
X150308501Y-107405264D01*
X150308489Y-107405261D01*
X150153845Y-107374500D01*
X150153842Y-107374500D01*
X149996158Y-107374500D01*
X149996155Y-107374500D01*
X149841510Y-107405261D01*
X149841498Y-107405264D01*
X149695827Y-107465602D01*
X149695814Y-107465609D01*
X149564125Y-107553602D01*
X149497447Y-107574480D01*
X149495234Y-107574500D01*
X135611670Y-107574500D01*
X135611654Y-107574499D01*
X135604058Y-107574499D01*
X135445943Y-107574499D01*
X135369579Y-107594961D01*
X135293214Y-107615423D01*
X135293209Y-107615426D01*
X135156290Y-107694475D01*
X135156282Y-107694481D01*
X134435339Y-108415425D01*
X134374016Y-108448910D01*
X134371850Y-108449361D01*
X134216508Y-108480261D01*
X134216498Y-108480264D01*
X134070827Y-108540602D01*
X134070814Y-108540609D01*
X133939711Y-108628210D01*
X133939707Y-108628213D01*
X133828213Y-108739707D01*
X133828210Y-108739711D01*
X133740609Y-108870814D01*
X133740602Y-108870827D01*
X133680264Y-109016498D01*
X133680261Y-109016510D01*
X133649500Y-109171154D01*
X133649205Y-109174151D01*
X133648611Y-109175620D01*
X133648311Y-109177132D01*
X133648024Y-109177074D01*
X133623046Y-109238939D01*
X133566013Y-109279299D01*
X133525802Y-109286000D01*
X131619943Y-109286000D01*
X131467216Y-109326923D01*
X131467209Y-109326926D01*
X131330290Y-109405975D01*
X131330282Y-109405981D01*
X131218481Y-109517782D01*
X131218475Y-109517790D01*
X131139426Y-109654709D01*
X131139423Y-109654716D01*
X131098500Y-109807443D01*
X131098500Y-122812273D01*
X131098499Y-122812291D01*
X131098499Y-122977997D01*
X131098498Y-122977997D01*
X131139423Y-123130728D01*
X131168358Y-123180843D01*
X131168359Y-123180847D01*
X131168360Y-123180847D01*
X131218479Y-123267657D01*
X131218481Y-123267660D01*
X131337349Y-123386528D01*
X131337355Y-123386533D01*
X132640196Y-124689374D01*
X132640206Y-124689385D01*
X132644536Y-124693715D01*
X132644537Y-124693716D01*
X132756341Y-124805520D01*
X132843152Y-124855639D01*
X132843154Y-124855641D01*
X132867569Y-124869737D01*
X132893272Y-124884577D01*
X133046000Y-124925500D01*
X133595234Y-124925500D01*
X133662273Y-124945185D01*
X133664125Y-124946398D01*
X133795814Y-125034390D01*
X133795827Y-125034397D01*
X133941498Y-125094735D01*
X133941503Y-125094737D01*
X134096153Y-125125499D01*
X134096156Y-125125500D01*
X134096158Y-125125500D01*
X134253844Y-125125500D01*
X134253845Y-125125499D01*
X134408497Y-125094737D01*
X134554179Y-125034394D01*
X134685289Y-124946789D01*
X134796789Y-124835289D01*
X134884394Y-124704179D01*
X134944737Y-124558497D01*
X134960236Y-124480579D01*
X134971231Y-124425308D01*
X135003616Y-124363397D01*
X135064332Y-124328823D01*
X135092848Y-124325500D01*
X143088274Y-124325500D01*
X143088290Y-124325501D01*
X143095886Y-124325501D01*
X143253997Y-124325501D01*
X143254000Y-124325501D01*
X143406728Y-124284577D01*
X143406729Y-124284575D01*
X143414578Y-124282473D01*
X143415312Y-124285215D01*
X143471088Y-124279203D01*
X143533576Y-124310460D01*
X143563667Y-124353787D01*
X143615602Y-124479172D01*
X143615609Y-124479185D01*
X143703210Y-124610288D01*
X143703213Y-124610292D01*
X143814707Y-124721786D01*
X143814711Y-124721789D01*
X143945814Y-124809390D01*
X143945827Y-124809397D01*
X144091498Y-124869735D01*
X144091503Y-124869737D01*
X144145089Y-124880396D01*
X144246849Y-124900638D01*
X144308760Y-124933023D01*
X144310339Y-124934574D01*
X145265139Y-125889374D01*
X145265149Y-125889385D01*
X145269479Y-125893715D01*
X145269480Y-125893716D01*
X145381284Y-126005520D01*
X145381286Y-126005521D01*
X145381290Y-126005524D01*
X145493368Y-126070231D01*
X145518216Y-126084577D01*
X145630019Y-126114534D01*
X145670942Y-126125500D01*
X145670943Y-126125500D01*
X149620234Y-126125500D01*
X149687273Y-126145185D01*
X149689125Y-126146398D01*
X149820814Y-126234390D01*
X149820827Y-126234397D01*
X149966498Y-126294735D01*
X149966503Y-126294737D01*
X150121153Y-126325499D01*
X150121156Y-126325500D01*
X150121158Y-126325500D01*
X150278844Y-126325500D01*
X150278845Y-126325499D01*
X150433497Y-126294737D01*
X150579179Y-126234394D01*
X150657537Y-126182037D01*
X150710875Y-126146398D01*
X150777553Y-126125520D01*
X150779766Y-126125500D01*
X155773959Y-126125500D01*
X155773975Y-126125501D01*
X155781571Y-126125501D01*
X155939682Y-126125501D01*
X155939685Y-126125501D01*
X156092413Y-126084577D01*
X156142532Y-126055639D01*
X156229344Y-126005520D01*
X156341148Y-125893716D01*
X156341148Y-125893714D01*
X156351356Y-125883507D01*
X156351358Y-125883504D01*
X157538340Y-124696521D01*
X157578569Y-124669643D01*
X157585207Y-124666894D01*
X157716317Y-124579289D01*
X157822519Y-124473086D01*
X157883840Y-124439603D01*
X157953532Y-124444587D01*
X157997880Y-124473088D01*
X159590681Y-126065889D01*
X159590691Y-126065900D01*
X159595021Y-126070230D01*
X159595022Y-126070231D01*
X159706826Y-126182035D01*
X159771117Y-126219153D01*
X159843757Y-126261092D01*
X159996484Y-126302015D01*
X159996485Y-126302015D01*
X161038331Y-126302015D01*
X161038347Y-126302016D01*
X161045943Y-126302016D01*
X161204054Y-126302016D01*
X161204057Y-126302016D01*
X161356785Y-126261092D01*
X161429425Y-126219153D01*
X161493716Y-126182035D01*
X161605520Y-126070231D01*
X161605520Y-126070229D01*
X161615724Y-126060026D01*
X161615728Y-126060021D01*
X162245311Y-125430438D01*
X162245316Y-125430434D01*
X162255519Y-125420230D01*
X162255521Y-125420230D01*
X162367325Y-125308426D01*
X162441312Y-125180276D01*
X162446382Y-125171495D01*
X162487306Y-125018767D01*
X162487306Y-124860653D01*
X162487306Y-124853058D01*
X162487305Y-124853040D01*
X162487305Y-123004243D01*
X162506990Y-122937204D01*
X162559794Y-122891449D01*
X162628952Y-122881505D01*
X162635487Y-122882624D01*
X162679852Y-122891449D01*
X162788192Y-122913000D01*
X162788195Y-122913000D01*
X162945881Y-122913000D01*
X162945882Y-122912999D01*
X163100534Y-122882237D01*
X163246216Y-122821894D01*
X163249227Y-122819882D01*
X163377912Y-122733898D01*
X163444590Y-122713020D01*
X163446803Y-122713000D01*
X164004503Y-122713000D01*
X164004519Y-122713001D01*
X164012115Y-122713001D01*
X164170226Y-122713001D01*
X164170229Y-122713001D01*
X164322957Y-122672077D01*
X164388464Y-122634256D01*
X164459888Y-122593020D01*
X164496599Y-122556308D01*
X164504946Y-122550347D01*
X164528640Y-122542108D01*
X164550657Y-122530086D01*
X164561075Y-122530831D01*
X164570940Y-122527401D01*
X164595327Y-122533280D01*
X164620349Y-122535070D01*
X164628710Y-122541329D01*
X164638864Y-122543777D01*
X164656200Y-122561907D01*
X164676283Y-122576940D01*
X164679933Y-122586725D01*
X164687152Y-122594275D01*
X164691934Y-122618901D01*
X164700701Y-122642404D01*
X164698789Y-122654199D01*
X164700472Y-122662863D01*
X164695272Y-122675905D01*
X164691578Y-122698704D01*
X164613687Y-122886748D01*
X164519548Y-123197086D01*
X164519545Y-123197097D01*
X164456287Y-123515125D01*
X164456284Y-123515142D01*
X164438822Y-123692443D01*
X164424500Y-123837857D01*
X164424500Y-124162143D01*
X164428116Y-124198852D01*
X164456284Y-124484857D01*
X164456287Y-124484874D01*
X164519545Y-124802902D01*
X164519548Y-124802913D01*
X164613686Y-125113247D01*
X164737786Y-125412849D01*
X164737788Y-125412854D01*
X164890646Y-125698830D01*
X164890657Y-125698848D01*
X165070811Y-125968467D01*
X165070821Y-125968481D01*
X165276546Y-126219158D01*
X165505841Y-126448453D01*
X165543851Y-126479647D01*
X165583185Y-126537392D01*
X165585056Y-126607237D01*
X165548869Y-126667005D01*
X165486113Y-126697721D01*
X165465186Y-126699500D01*
X130774000Y-126699500D01*
X130706961Y-126679815D01*
X130661206Y-126627011D01*
X130650000Y-126575500D01*
X130650000Y-107049500D01*
X130669685Y-106982461D01*
X130722489Y-106936706D01*
X130774000Y-106925500D01*
X171175500Y-106925500D01*
X171242539Y-106945185D01*
G37*
G04 #@! TD.AperFunction*
G04 #@! TA.AperFunction,Conductor*
G36*
X171012572Y-116759020D02*
G01*
X171012573Y-116759019D01*
X171036187Y-116723680D01*
X171036190Y-116723676D01*
X171060939Y-116663927D01*
X171104780Y-116609523D01*
X171171074Y-116587458D01*
X171238773Y-116604737D01*
X171286384Y-116655874D01*
X171299500Y-116711379D01*
X171299500Y-126575500D01*
X171279815Y-126642539D01*
X171227011Y-126688294D01*
X171175500Y-126699500D01*
X169984814Y-126699500D01*
X169917775Y-126679815D01*
X169872020Y-126627011D01*
X169862076Y-126557853D01*
X169891101Y-126494297D01*
X169906149Y-126479647D01*
X169944153Y-126448458D01*
X170173458Y-126219153D01*
X170379183Y-125968476D01*
X170559347Y-125698842D01*
X170712215Y-125412847D01*
X170836314Y-125113246D01*
X170930449Y-124802923D01*
X170930451Y-124802913D01*
X170930454Y-124802902D01*
X170966938Y-124619481D01*
X170993714Y-124484868D01*
X171025500Y-124162143D01*
X171025500Y-123837857D01*
X170993714Y-123515132D01*
X170944489Y-123267659D01*
X170930454Y-123197097D01*
X170930451Y-123197086D01*
X170930450Y-123197083D01*
X170930449Y-123197077D01*
X170836314Y-122886754D01*
X170712215Y-122587153D01*
X170711986Y-122586725D01*
X170559353Y-122301169D01*
X170559352Y-122301167D01*
X170559347Y-122301158D01*
X170379183Y-122031524D01*
X170173458Y-121780847D01*
X170173457Y-121780846D01*
X170173453Y-121780841D01*
X169944158Y-121551546D01*
X169693481Y-121345821D01*
X169693480Y-121345820D01*
X169693476Y-121345817D01*
X169423842Y-121165653D01*
X169423837Y-121165650D01*
X169423830Y-121165646D01*
X169137854Y-121012788D01*
X169137849Y-121012786D01*
X168838247Y-120888686D01*
X168527913Y-120794548D01*
X168527902Y-120794545D01*
X168209874Y-120731287D01*
X168209857Y-120731284D01*
X167965812Y-120707248D01*
X167887143Y-120699500D01*
X167562857Y-120699500D01*
X167490099Y-120706666D01*
X167240142Y-120731284D01*
X167240125Y-120731287D01*
X166922097Y-120794545D01*
X166922086Y-120794548D01*
X166611752Y-120888686D01*
X166312150Y-121012786D01*
X166312145Y-121012788D01*
X166223216Y-121060322D01*
X166154813Y-121074564D01*
X166089569Y-121049564D01*
X166077082Y-121038645D01*
X165994280Y-120955843D01*
X165994276Y-120955840D01*
X165863173Y-120868239D01*
X165863160Y-120868232D01*
X165717489Y-120807894D01*
X165717479Y-120807891D01*
X165600308Y-120784584D01*
X165538397Y-120752199D01*
X165503823Y-120691483D01*
X165500500Y-120662967D01*
X165500500Y-119549500D01*
X165520185Y-119482461D01*
X165572989Y-119436706D01*
X165624500Y-119425500D01*
X166361403Y-119425500D01*
X166428442Y-119445185D01*
X166449084Y-119461819D01*
X166651639Y-119664374D01*
X166651649Y-119664385D01*
X166655979Y-119668715D01*
X166655980Y-119668716D01*
X166767784Y-119780520D01*
X166767786Y-119780521D01*
X166767790Y-119780524D01*
X166868304Y-119838555D01*
X166904716Y-119859577D01*
X167001533Y-119885519D01*
X167001532Y-119885519D01*
X167013347Y-119888684D01*
X167057442Y-119900500D01*
X167057443Y-119900500D01*
X168837060Y-119900500D01*
X168904099Y-119920185D01*
X168924736Y-119936814D01*
X168985645Y-119997723D01*
X169014712Y-120026790D01*
X169145814Y-120114390D01*
X169145827Y-120114397D01*
X169208837Y-120140496D01*
X169291503Y-120174737D01*
X169410414Y-120198390D01*
X169446153Y-120205499D01*
X169446156Y-120205500D01*
X169446158Y-120205500D01*
X169603844Y-120205500D01*
X169603845Y-120205499D01*
X169758497Y-120174737D01*
X169904179Y-120114394D01*
X170035289Y-120026789D01*
X170146789Y-119915289D01*
X170234394Y-119784179D01*
X170294737Y-119638497D01*
X170325500Y-119483842D01*
X170325500Y-119326158D01*
X170325500Y-119326155D01*
X170325499Y-119326153D01*
X170311299Y-119254765D01*
X170294737Y-119171503D01*
X170246143Y-119054185D01*
X170234397Y-119025827D01*
X170234390Y-119025814D01*
X170146789Y-118894711D01*
X170146786Y-118894707D01*
X170035292Y-118783213D01*
X170035288Y-118783210D01*
X169904185Y-118695609D01*
X169904172Y-118695602D01*
X169758501Y-118635264D01*
X169758489Y-118635261D01*
X169603845Y-118604500D01*
X169603842Y-118604500D01*
X169446158Y-118604500D01*
X169446155Y-118604500D01*
X169291510Y-118635261D01*
X169291498Y-118635264D01*
X169159207Y-118690061D01*
X169111755Y-118699500D01*
X167436597Y-118699500D01*
X167369558Y-118679815D01*
X167348916Y-118663181D01*
X167149090Y-118463355D01*
X167149088Y-118463352D01*
X167030217Y-118344481D01*
X167030212Y-118344477D01*
X166918176Y-118279794D01*
X166893285Y-118265423D01*
X166740557Y-118224499D01*
X166582443Y-118224499D01*
X166574847Y-118224499D01*
X166574831Y-118224500D01*
X166560678Y-118224500D01*
X166493639Y-118204815D01*
X166447884Y-118152011D01*
X166437940Y-118082853D01*
X166457575Y-118031611D01*
X166459861Y-118028188D01*
X166459861Y-118028187D01*
X166459867Y-118028179D01*
X166520210Y-117882497D01*
X166550973Y-117727842D01*
X166550973Y-117649318D01*
X166570658Y-117582279D01*
X166623462Y-117536524D01*
X166650782Y-117527701D01*
X166671574Y-117523565D01*
X166766892Y-117504605D01*
X166879561Y-117457935D01*
X166912567Y-117444265D01*
X166912567Y-117444264D01*
X166912574Y-117444262D01*
X167043684Y-117356657D01*
X167155184Y-117245157D01*
X167220575Y-117147292D01*
X167274184Y-117102490D01*
X167343509Y-117093782D01*
X167406537Y-117123936D01*
X167411356Y-117128504D01*
X167513371Y-117230519D01*
X167513373Y-117230520D01*
X167513377Y-117230523D01*
X167650296Y-117309572D01*
X167650299Y-117309574D01*
X167650303Y-117309576D01*
X167803030Y-117350500D01*
X167803032Y-117350500D01*
X167968741Y-117350500D01*
X167968757Y-117350499D01*
X168293332Y-117350499D01*
X168293348Y-117350500D01*
X168300944Y-117350500D01*
X168459055Y-117350500D01*
X168459058Y-117350500D01*
X168611786Y-117309576D01*
X168680643Y-117269821D01*
X168690942Y-117263874D01*
X168758839Y-117247398D01*
X168777146Y-117249642D01*
X168781458Y-117250500D01*
X168781459Y-117250500D01*
X168978543Y-117250500D01*
X169108582Y-117224632D01*
X169171835Y-117212051D01*
X169353914Y-117136632D01*
X169353919Y-117136628D01*
X169353922Y-117136627D01*
X169400913Y-117105228D01*
X169446559Y-117074728D01*
X169513234Y-117053850D01*
X169580614Y-117072334D01*
X169584341Y-117074728D01*
X169676321Y-117136188D01*
X169676328Y-117136192D01*
X169858306Y-117211569D01*
X169858318Y-117211572D01*
X170051504Y-117249999D01*
X170051508Y-117250000D01*
X170248492Y-117250000D01*
X170248495Y-117249999D01*
X170441681Y-117211572D01*
X170441693Y-117211569D01*
X170623676Y-117136190D01*
X170623680Y-117136187D01*
X170659019Y-117112573D01*
X170659020Y-117112572D01*
X170121447Y-116575000D01*
X170192787Y-116575000D01*
X170275445Y-116552851D01*
X170349554Y-116510064D01*
X170410064Y-116449554D01*
X170452851Y-116375445D01*
X170475000Y-116292787D01*
X170475000Y-116221447D01*
X171012572Y-116759020D01*
G37*
G04 #@! TD.AperFunction*
G04 #@! TA.AperFunction,Conductor*
G36*
X164912620Y-117355053D02*
G01*
X164958375Y-117407857D01*
X164968319Y-117477015D01*
X164967198Y-117483560D01*
X164949834Y-117570850D01*
X164917448Y-117632761D01*
X164915898Y-117634339D01*
X164419481Y-118130755D01*
X164419479Y-118130757D01*
X164407209Y-118152011D01*
X164389031Y-118183497D01*
X164340423Y-118267688D01*
X164299499Y-118420416D01*
X164299499Y-118420418D01*
X164299499Y-118588519D01*
X164299500Y-118588532D01*
X164299500Y-120787000D01*
X164279815Y-120854039D01*
X164227011Y-120899794D01*
X164175500Y-120911000D01*
X163787597Y-120911000D01*
X163720558Y-120891315D01*
X163674803Y-120838511D01*
X163664859Y-120769353D01*
X163693884Y-120705797D01*
X163699916Y-120699319D01*
X163776232Y-120623003D01*
X163905519Y-120493716D01*
X163984577Y-120356785D01*
X164025501Y-120204057D01*
X164025501Y-120045943D01*
X163984577Y-119893215D01*
X163905519Y-119756284D01*
X163811819Y-119662584D01*
X163778334Y-119601261D01*
X163775500Y-119574903D01*
X163775500Y-119254765D01*
X163795185Y-119187726D01*
X163796398Y-119185874D01*
X163806001Y-119171503D01*
X163884394Y-119054179D01*
X163944737Y-118908497D01*
X163975500Y-118753842D01*
X163975500Y-118596158D01*
X163975500Y-118596155D01*
X163975499Y-118596153D01*
X163971994Y-118578533D01*
X163944737Y-118441503D01*
X163944735Y-118441498D01*
X163884397Y-118295827D01*
X163884390Y-118295814D01*
X163796789Y-118164711D01*
X163796786Y-118164707D01*
X163685292Y-118053213D01*
X163685288Y-118053210D01*
X163554185Y-117965609D01*
X163554172Y-117965602D01*
X163408501Y-117905264D01*
X163408489Y-117905261D01*
X163253845Y-117874500D01*
X163253842Y-117874500D01*
X163096158Y-117874500D01*
X163096155Y-117874500D01*
X162941510Y-117905261D01*
X162941498Y-117905264D01*
X162795827Y-117965602D01*
X162795814Y-117965609D01*
X162664711Y-118053210D01*
X162664707Y-118053213D01*
X162553213Y-118164707D01*
X162553210Y-118164711D01*
X162465609Y-118295814D01*
X162465602Y-118295827D01*
X162405264Y-118441498D01*
X162405261Y-118441510D01*
X162374500Y-118596153D01*
X162374500Y-118753846D01*
X162405261Y-118908489D01*
X162405264Y-118908501D01*
X162465602Y-119054172D01*
X162465609Y-119054185D01*
X162553602Y-119185874D01*
X162574480Y-119252551D01*
X162574500Y-119254765D01*
X162574500Y-119788330D01*
X162574499Y-119788348D01*
X162574499Y-119954058D01*
X162592361Y-120020723D01*
X162590697Y-120090573D01*
X162560267Y-120140496D01*
X161633423Y-121067341D01*
X160714605Y-121986159D01*
X160714603Y-121986161D01*
X160645503Y-122055261D01*
X160611394Y-122089370D01*
X160592608Y-122104788D01*
X160573033Y-122117868D01*
X160461528Y-122229372D01*
X160373928Y-122360474D01*
X160373921Y-122360487D01*
X160313583Y-122506158D01*
X160313580Y-122506170D01*
X160282819Y-122660813D01*
X160282819Y-122818506D01*
X160313580Y-122973149D01*
X160313583Y-122973161D01*
X160373921Y-123118832D01*
X160373928Y-123118845D01*
X160461529Y-123249948D01*
X160461532Y-123249952D01*
X160573026Y-123361446D01*
X160573030Y-123361449D01*
X160704133Y-123449050D01*
X160704146Y-123449057D01*
X160849817Y-123509395D01*
X160849822Y-123509397D01*
X161004472Y-123540159D01*
X161004475Y-123540160D01*
X161162305Y-123540160D01*
X161229344Y-123559845D01*
X161275099Y-123612649D01*
X161286305Y-123664160D01*
X161286305Y-124639612D01*
X161277660Y-124669051D01*
X161271136Y-124699042D01*
X161267381Y-124704056D01*
X161266620Y-124706651D01*
X161249984Y-124727295D01*
X161229452Y-124747826D01*
X161168128Y-124781310D01*
X161098437Y-124776324D01*
X161042504Y-124734451D01*
X161037346Y-124726345D01*
X161037264Y-124726401D01*
X160946274Y-124590226D01*
X160946271Y-124590222D01*
X160834777Y-124478728D01*
X160834773Y-124478725D01*
X160703670Y-124391124D01*
X160703657Y-124391117D01*
X160557986Y-124330779D01*
X160557976Y-124330776D01*
X160402634Y-124299876D01*
X160340723Y-124267491D01*
X160339145Y-124265940D01*
X158036560Y-121963355D01*
X158036558Y-121963352D01*
X157917687Y-121844481D01*
X157917686Y-121844480D01*
X157828893Y-121793216D01*
X157828892Y-121793215D01*
X157780753Y-121765422D01*
X157724851Y-121750443D01*
X157628027Y-121724499D01*
X157469913Y-121724499D01*
X157462317Y-121724499D01*
X157462301Y-121724500D01*
X156692321Y-121724500D01*
X156625282Y-121704815D01*
X156579527Y-121652011D01*
X156569583Y-121582853D01*
X156598608Y-121519297D01*
X156604640Y-121512819D01*
X156968317Y-121149142D01*
X157362819Y-120754638D01*
X157424142Y-120721154D01*
X157493833Y-120726138D01*
X157549767Y-120768010D01*
X157574184Y-120833474D01*
X157574500Y-120842320D01*
X157574500Y-120935346D01*
X157605261Y-121089989D01*
X157605264Y-121090001D01*
X157665602Y-121235672D01*
X157665609Y-121235685D01*
X157753210Y-121366788D01*
X157753213Y-121366792D01*
X157864707Y-121478286D01*
X157864711Y-121478289D01*
X157995814Y-121565890D01*
X157995827Y-121565897D01*
X158141498Y-121626235D01*
X158141503Y-121626237D01*
X158271077Y-121652011D01*
X158296153Y-121656999D01*
X158296156Y-121657000D01*
X158296158Y-121657000D01*
X158453844Y-121657000D01*
X158453845Y-121656999D01*
X158608497Y-121626237D01*
X158754179Y-121565894D01*
X158885289Y-121478289D01*
X158996789Y-121366789D01*
X159084394Y-121235679D01*
X159144737Y-121089997D01*
X159175500Y-120935342D01*
X159175500Y-120777658D01*
X159175500Y-120777655D01*
X159174903Y-120771593D01*
X159176098Y-120771475D01*
X159181757Y-120708222D01*
X159209465Y-120665941D01*
X162503722Y-117371687D01*
X162565045Y-117338202D01*
X162591403Y-117335368D01*
X164845581Y-117335368D01*
X164912620Y-117355053D01*
G37*
G04 #@! TD.AperFunction*
G04 #@! TA.AperFunction,Conductor*
G36*
X134469715Y-111509834D02*
G01*
X134473440Y-111512228D01*
X134566079Y-111574128D01*
X134566092Y-111574135D01*
X134747011Y-111649073D01*
X134748165Y-111649551D01*
X134748169Y-111649551D01*
X134748170Y-111649552D01*
X134941456Y-111688000D01*
X134941459Y-111688000D01*
X135138543Y-111688000D01*
X135268582Y-111662132D01*
X135331835Y-111649551D01*
X135513914Y-111574132D01*
X135606109Y-111512529D01*
X135672786Y-111491651D01*
X135740166Y-111510135D01*
X135743891Y-111512529D01*
X135836086Y-111574132D01*
X135836088Y-111574133D01*
X135836092Y-111574135D01*
X136017011Y-111649073D01*
X136018165Y-111649551D01*
X136018169Y-111649551D01*
X136018170Y-111649552D01*
X136211456Y-111688000D01*
X136409903Y-111688000D01*
X136476942Y-111707685D01*
X136497584Y-111724319D01*
X141762345Y-116989080D01*
X141762355Y-116989091D01*
X141766685Y-116993421D01*
X141766686Y-116993422D01*
X141878490Y-117105226D01*
X141878492Y-117105227D01*
X141878493Y-117105228D01*
X141893769Y-117114047D01*
X141950610Y-117146864D01*
X142015421Y-117184283D01*
X142168148Y-117225206D01*
X142168149Y-117225206D01*
X144221289Y-117225206D01*
X144288328Y-117244891D01*
X144334083Y-117297695D01*
X144344027Y-117366853D01*
X144315002Y-117430409D01*
X144275558Y-117458852D01*
X144276191Y-117460036D01*
X144270814Y-117462909D01*
X144139711Y-117550510D01*
X144139707Y-117550513D01*
X144028213Y-117662007D01*
X144028210Y-117662011D01*
X143940609Y-117793114D01*
X143940602Y-117793127D01*
X143880264Y-117938798D01*
X143880261Y-117938810D01*
X143849500Y-118093453D01*
X143849500Y-118251146D01*
X143880261Y-118405789D01*
X143880264Y-118405801D01*
X143940602Y-118551472D01*
X143940609Y-118551485D01*
X144028210Y-118682588D01*
X144028213Y-118682592D01*
X144139707Y-118794086D01*
X144139711Y-118794089D01*
X144270814Y-118881690D01*
X144270827Y-118881697D01*
X144335539Y-118908501D01*
X144416503Y-118942037D01*
X144571153Y-118972799D01*
X144571156Y-118972800D01*
X144571158Y-118972800D01*
X144728844Y-118972800D01*
X144728845Y-118972799D01*
X144883497Y-118942037D01*
X145029179Y-118881694D01*
X145045269Y-118870943D01*
X145160875Y-118793698D01*
X145227553Y-118772820D01*
X145229766Y-118772800D01*
X150622260Y-118772800D01*
X150689299Y-118792485D01*
X150709941Y-118809119D01*
X152988641Y-121087819D01*
X153022126Y-121149142D01*
X153017142Y-121218834D01*
X152975270Y-121274767D01*
X152909806Y-121299184D01*
X152900960Y-121299500D01*
X144236670Y-121299500D01*
X144236654Y-121299499D01*
X144229058Y-121299499D01*
X144070943Y-121299499D01*
X143994579Y-121319961D01*
X143918214Y-121340423D01*
X143918209Y-121340426D01*
X143781290Y-121419475D01*
X143781282Y-121419481D01*
X143210339Y-121990425D01*
X143149016Y-122023910D01*
X143146850Y-122024361D01*
X142991508Y-122055261D01*
X142991498Y-122055264D01*
X142845827Y-122115602D01*
X142845814Y-122115609D01*
X142714711Y-122203210D01*
X142714707Y-122203213D01*
X142603213Y-122314707D01*
X142603210Y-122314711D01*
X142515609Y-122445814D01*
X142515602Y-122445827D01*
X142455264Y-122591498D01*
X142455261Y-122591510D01*
X142424500Y-122746153D01*
X142424500Y-122903846D01*
X142438914Y-122976309D01*
X142432687Y-123045900D01*
X142389824Y-123101078D01*
X142323934Y-123124322D01*
X142317297Y-123124500D01*
X133954766Y-123124500D01*
X133887727Y-123104815D01*
X133885875Y-123103602D01*
X133754185Y-123015609D01*
X133754172Y-123015602D01*
X133608501Y-122955264D01*
X133608489Y-122955261D01*
X133453845Y-122924500D01*
X133453842Y-122924500D01*
X133296158Y-122924500D01*
X133296155Y-122924500D01*
X133141510Y-122955261D01*
X133141498Y-122955264D01*
X132995827Y-123015602D01*
X132995816Y-123015608D01*
X132882059Y-123091618D01*
X132815382Y-123112495D01*
X132748002Y-123094010D01*
X132725488Y-123076196D01*
X132335819Y-122686527D01*
X132302334Y-122625204D01*
X132299500Y-122598846D01*
X132299500Y-111811999D01*
X132319185Y-111744960D01*
X132371989Y-111699205D01*
X132423500Y-111687999D01*
X133047871Y-111687999D01*
X133047872Y-111687999D01*
X133107483Y-111681591D01*
X133242331Y-111631296D01*
X133254575Y-111622129D01*
X133320035Y-111597710D01*
X133376339Y-111606833D01*
X133478309Y-111649070D01*
X133478318Y-111649073D01*
X133671504Y-111687499D01*
X133671508Y-111687500D01*
X133868492Y-111687500D01*
X133868495Y-111687499D01*
X134061681Y-111649072D01*
X134061693Y-111649069D01*
X134243673Y-111573691D01*
X134243676Y-111573689D01*
X134335657Y-111512229D01*
X134402334Y-111491350D01*
X134469715Y-111509834D01*
G37*
G04 #@! TD.AperFunction*
G04 #@! TA.AperFunction,Conductor*
G36*
X161209246Y-116755053D02*
G01*
X161255001Y-116807857D01*
X161264945Y-116877015D01*
X161235920Y-116940571D01*
X161229888Y-116947049D01*
X160177170Y-117999767D01*
X160115847Y-118033252D01*
X160046155Y-118028268D01*
X159990222Y-117986396D01*
X159965805Y-117920932D01*
X159965489Y-117912086D01*
X159965489Y-117816584D01*
X159965488Y-117816566D01*
X159965488Y-117494410D01*
X159965489Y-117494397D01*
X159965489Y-117326295D01*
X159965489Y-117326293D01*
X159924565Y-117173565D01*
X159903243Y-117136635D01*
X159889351Y-117112572D01*
X159845508Y-117036634D01*
X159755923Y-116947049D01*
X159722438Y-116885726D01*
X159727422Y-116816034D01*
X159769294Y-116760101D01*
X159834758Y-116735684D01*
X159843604Y-116735368D01*
X161142207Y-116735368D01*
X161209246Y-116755053D01*
G37*
G04 #@! TD.AperFunction*
G04 #@! TA.AperFunction,Conductor*
G36*
X171178577Y-115320678D02*
G01*
X171186168Y-115319144D01*
X171211954Y-115329197D01*
X171238773Y-115336042D01*
X171244049Y-115341709D01*
X171251266Y-115344523D01*
X171267524Y-115366922D01*
X171286384Y-115387179D01*
X171288390Y-115395670D01*
X171292308Y-115401068D01*
X171293142Y-115415780D01*
X171299500Y-115442684D01*
X171299500Y-115788620D01*
X171279815Y-115855659D01*
X171227011Y-115901414D01*
X171157853Y-115911358D01*
X171094297Y-115882333D01*
X171060939Y-115836073D01*
X171036190Y-115776325D01*
X171036188Y-115776321D01*
X170974728Y-115684341D01*
X170970106Y-115669580D01*
X170961022Y-115657065D01*
X170959879Y-115636918D01*
X170953850Y-115617663D01*
X170957884Y-115601753D01*
X170957065Y-115587308D01*
X170967866Y-115562389D01*
X170969886Y-115554424D01*
X170972153Y-115550412D01*
X171036632Y-115453914D01*
X171063832Y-115388244D01*
X171067556Y-115381659D01*
X171087411Y-115362381D01*
X171104779Y-115340828D01*
X171112128Y-115338381D01*
X171117684Y-115332988D01*
X171144808Y-115327504D01*
X171171073Y-115318763D01*
X171178577Y-115320678D01*
G37*
G04 #@! TD.AperFunction*
G04 #@! TA.AperFunction,Conductor*
G36*
X166267942Y-112471185D02*
G01*
X166288584Y-112487819D01*
X166888181Y-113087416D01*
X166921666Y-113148739D01*
X166924500Y-113175097D01*
X166924500Y-114788100D01*
X166904815Y-114855139D01*
X166852011Y-114900894D01*
X166782853Y-114910838D01*
X166731609Y-114891202D01*
X166618477Y-114815609D01*
X166618464Y-114815602D01*
X166472793Y-114755264D01*
X166472781Y-114755261D01*
X166318137Y-114724500D01*
X166318134Y-114724500D01*
X166160450Y-114724500D01*
X166160447Y-114724500D01*
X166005802Y-114755261D01*
X166005790Y-114755264D01*
X165860119Y-114815602D01*
X165860107Y-114815609D01*
X165777342Y-114870912D01*
X165710665Y-114891790D01*
X165708451Y-114891810D01*
X164704061Y-114891810D01*
X164704057Y-114891809D01*
X164545943Y-114891809D01*
X164545939Y-114891810D01*
X161841073Y-114891810D01*
X161774034Y-114872125D01*
X161772182Y-114870912D01*
X161704176Y-114825472D01*
X161558501Y-114765132D01*
X161558489Y-114765129D01*
X161403845Y-114734368D01*
X161403842Y-114734368D01*
X161246158Y-114734368D01*
X161246155Y-114734368D01*
X161091510Y-114765129D01*
X161091498Y-114765132D01*
X160945827Y-114825470D01*
X160945814Y-114825477D01*
X160814711Y-114913078D01*
X160814707Y-114913081D01*
X160703213Y-115024575D01*
X160703210Y-115024579D01*
X160615609Y-115155682D01*
X160615602Y-115155695D01*
X160555264Y-115301366D01*
X160555261Y-115301376D01*
X160528769Y-115434560D01*
X160496384Y-115496471D01*
X160435668Y-115531045D01*
X160407152Y-115534368D01*
X158241744Y-115534368D01*
X158241728Y-115534367D01*
X158234132Y-115534367D01*
X158076018Y-115534367D01*
X157971440Y-115562389D01*
X157923289Y-115575291D01*
X157873839Y-115603842D01*
X157873837Y-115603843D01*
X157826499Y-115631173D01*
X157758599Y-115647644D01*
X157692572Y-115624792D01*
X157649382Y-115569870D01*
X157640500Y-115523785D01*
X157640500Y-115077457D01*
X157660185Y-115010418D01*
X157676820Y-114989775D01*
X157726392Y-114940203D01*
X157726395Y-114940200D01*
X157814000Y-114809090D01*
X157874343Y-114663408D01*
X157888597Y-114591748D01*
X157896702Y-114551005D01*
X157911417Y-114522873D01*
X157924605Y-114493995D01*
X157927494Y-114492137D01*
X157929087Y-114489094D01*
X157956677Y-114473383D01*
X157983383Y-114456220D01*
X157987977Y-114455559D01*
X157989803Y-114454520D01*
X158018317Y-114451197D01*
X158090058Y-114451197D01*
X158090061Y-114451196D01*
X158097668Y-114451196D01*
X162487635Y-114451196D01*
X162487651Y-114451197D01*
X162495247Y-114451197D01*
X162653358Y-114451197D01*
X162653361Y-114451197D01*
X162806089Y-114410273D01*
X162856208Y-114381335D01*
X162943020Y-114331216D01*
X163054824Y-114219412D01*
X163054824Y-114219410D01*
X163065032Y-114209203D01*
X163065033Y-114209200D01*
X163589662Y-113684572D01*
X163606255Y-113675511D01*
X163619866Y-113662379D01*
X163649361Y-113651974D01*
X163650983Y-113651089D01*
X163653150Y-113650638D01*
X163664924Y-113648296D01*
X163734515Y-113654523D01*
X163789693Y-113697386D01*
X163812937Y-113763276D01*
X163813115Y-113769913D01*
X163813115Y-113870094D01*
X163843876Y-114024737D01*
X163843879Y-114024749D01*
X163904217Y-114170420D01*
X163904224Y-114170433D01*
X163991825Y-114301536D01*
X163991828Y-114301540D01*
X164103322Y-114413034D01*
X164103326Y-114413037D01*
X164234429Y-114500638D01*
X164234442Y-114500645D01*
X164356024Y-114551005D01*
X164380118Y-114560985D01*
X164534768Y-114591747D01*
X164534771Y-114591748D01*
X164534773Y-114591748D01*
X164692459Y-114591748D01*
X164692460Y-114591747D01*
X164847112Y-114560985D01*
X164992794Y-114500642D01*
X165123904Y-114413037D01*
X165235404Y-114301537D01*
X165323009Y-114170427D01*
X165383352Y-114024745D01*
X165414115Y-113870090D01*
X165414115Y-113712406D01*
X165414115Y-113712403D01*
X165414114Y-113712401D01*
X165401801Y-113650500D01*
X165383352Y-113557751D01*
X165347581Y-113471391D01*
X165323012Y-113412075D01*
X165323005Y-113412062D01*
X165235404Y-113280959D01*
X165235401Y-113280955D01*
X165123907Y-113169461D01*
X165123903Y-113169458D01*
X164992800Y-113081857D01*
X164992787Y-113081850D01*
X164847116Y-113021512D01*
X164847104Y-113021509D01*
X164692460Y-112990748D01*
X164692457Y-112990748D01*
X164534773Y-112990748D01*
X164534768Y-112990748D01*
X164523687Y-112992952D01*
X164454095Y-112986722D01*
X164398920Y-112943857D01*
X164375678Y-112877966D01*
X164375500Y-112871334D01*
X164375500Y-112771155D01*
X164375499Y-112771153D01*
X164367035Y-112728602D01*
X164344737Y-112616503D01*
X164344732Y-112616490D01*
X164343219Y-112611502D01*
X164342592Y-112541635D01*
X164379837Y-112482520D01*
X164443130Y-112452926D01*
X164461878Y-112451500D01*
X166200903Y-112451500D01*
X166267942Y-112471185D01*
G37*
G04 #@! TD.AperFunction*
G04 #@! TA.AperFunction,Conductor*
G36*
X164088181Y-109549628D02*
G01*
X164121666Y-109610951D01*
X164124500Y-109637300D01*
X164124500Y-109647865D01*
X164124501Y-109647876D01*
X164130908Y-109707483D01*
X164181202Y-109842328D01*
X164181206Y-109842335D01*
X164267452Y-109957544D01*
X164267455Y-109957547D01*
X164382664Y-110043793D01*
X164382671Y-110043797D01*
X164517517Y-110094091D01*
X164517516Y-110094091D01*
X164521135Y-110094480D01*
X164577127Y-110100500D01*
X165434303Y-110100499D01*
X165501342Y-110120183D01*
X165547097Y-110172987D01*
X165557041Y-110242146D01*
X165548865Y-110271950D01*
X165530263Y-110316860D01*
X165530261Y-110316867D01*
X165499500Y-110471510D01*
X165499500Y-110629203D01*
X165513843Y-110701309D01*
X165507616Y-110770900D01*
X165464753Y-110826078D01*
X165398863Y-110849322D01*
X165392226Y-110849500D01*
X164299228Y-110849500D01*
X164232189Y-110829815D01*
X164211547Y-110813181D01*
X163538288Y-110139922D01*
X163504803Y-110078599D01*
X163509787Y-110008907D01*
X163551659Y-109952974D01*
X163569675Y-109941756D01*
X163642552Y-109904624D01*
X163696716Y-109865270D01*
X163696717Y-109865270D01*
X163064408Y-109232962D01*
X163127993Y-109215925D01*
X163242007Y-109150099D01*
X163335099Y-109057007D01*
X163400925Y-108942993D01*
X163417962Y-108879409D01*
X164088181Y-109549628D01*
G37*
G04 #@! TD.AperFunction*
M02*
